<mxfile host="65bd71144e">
    <diagram id="ZvortuZg23_ZGn8Bl8tm" name="第 1 页">
        <mxGraphModel dx="1009" dy="619" grid="1" gridSize="10" guides="1" tooltips="1" connect="1" arrows="1" fold="1" page="1" pageScale="1" pageWidth="850" pageHeight="1100" math="0" shadow="0">
            <root>
                <mxCell id="0"/>
                <mxCell id="1" parent="0"/>
                <mxCell id="2" value="" style="shape=image;verticalLabelPosition=bottom;labelBackgroundColor=default;verticalAlign=top;aspect=fixed;imageAspect=0;image=data:image/png,iVBORw0KGgoAAAANSUhEUgAAApoAAABuCAYAAACHkLPZAAAgAElEQVR4nO2dv2sby/f335+Hz1+QBRUqbFIqYNxIxS0c0llwZVRYVQgWcWFBcCXkQmx4qivEg2VVJiAVBkFIE7kQVvjKnYmLC1nxBWGIyiBDBBbs36CnmJnd2d3ZX7Ik35ucFwiS9e7O7zNnzpw5+5/5fD4HQRAEQRAEQSyZ//PUGSAIgiAIgiB+TUjRJAiCIAiCIFYCKZoEQRAEQRDESiBFkyAIgiAIglgJpGgSBEEQBEEQK4EUTYIgCIIgCGIlkKJJEARBEARBrARSNAmCIAiCIIiVQIomQRAEQRAEsRJI0SQIgiAIgiBWAimaBEEQBEEQxEogRZMgCIIgCIJYCaRoEgRBEP8YjIaG5vCpc0EQxLJYn6I5bEI77GIW+0EDTU2DFunXhBGWB+2xQsxAUyuiO3VenV0WoTX8UjfQVOTNaKjLEZq/hevyCZl2UXx03Qtm6B5qvvU9uyxCU7TRr09wvVh3BfbV8L8/BtY2Ucez1F+sPs/lwWEXM15edo+QE37t7qob3h9D05XvddRJgFySxyaXOcVLabTya2FtYD0Tklfrx9+3ivYVsipw/A6bzveG5lvRVsMmsnUdO+nw5x11Gq0UEWS36h61/LaeXXhuYn1SLoej3a20l6t4LzYG/fu7J29Wu4XVWQwZ/TuNQZG3SLqBSgbG/QW3Q6SxH8LaFM3ZZITcny+RcFz1qRiPEqVjYJowrd8AuvLaGhjeopbfAz4585w66gP1rLpjTDex0x4hq2gs/Voug4lBNSwDM3Q/1BR1GQPPoAlR0Il/CQkU/mohV88GC4U/jtH6nn2yxUquPXb0efNaB/ItjB3jeYxW3n7GuKkBvRI+yuUafkSpB9RuDGA6wQgA8nt4mVQkyu9F/dwpVF3pesffDN33JfQBaXw3YSCDsnV/Dq07E+ZdC7nQ0rPxCwD6q4zvXYn9Y2wfpdhklCygI/J410LOI/v4r8Lft9T2ZRNZtq5jcNfCaDdAwUuXMUDWnkDlfCt/HRTktpp2UdwdoXVXRibC8519JgFVC/alWkRF3/LB0589P7+5KYHCxRh7X1JKpYMpZFng2kQ5vaSy+OU5dAyy/u79Ww4bqvGmhPWl1FGf/7+P0lYUpec3HIOBbSErlzLuNvL2QXVfdY1DuZ6ijv0Q1qRozvD1Sx/bmyrViHcQucN7qCHr6IxZ1JTXQkiXYZqPG7TGTQ36uwIKFWdjjds5oDrwNGI5DSCZQGa/g3E7h9oH0fFmmHyPkJ5HiKZQ6gH9o1TgKsW3Qwyb0LZK2JYV3LsNnK/IgvUUJPY7rsHDFjSLDpL4rDq9gJXrFhPItV1/q0oimUHhYowWSji5nHksHKpF0/rqTk2mwhaXG8mJde3rZMQEfiWD2d9XbCLqlZBSKBzGTQ2AjsHdHq62NGjvryKkOkP3MIVSzzWJVXeYIgQDt3XFYy82/ReBQuGFTxtZ4zCDsjmA7laMp/fo5zewGZDrZbUvey6Fqz/HMM0yMskCOiZXjHwWp5nKGK3vIQsdFdMuiltX2Lvzm/SCsSdQ5wJlMbaxuUAe4mDL9RRfAGWtthGyXShkVj95ahnt2Emb4L4HANvYnLoscFwGiXm7ObT7UqkHxTwpKeLVY1f70xhcRrvPLs9Ry7dwuh/NPLXI2A9kvlK+zc+ePZs/U/wOug/87wfzzz+lR4yz+bO3n+cPjneczb953hvl2pL5+Xl+4JPGQ/dg/uxUnfq3U1Fe97tcZef3nhl+GVDUV0y+nT7zzedK+fl5fvAsqGxxeJh/fhunHKwfetpgZaw5vYB+6SW8DwX15cfy0D3w1otnzM/noo1Zf/GXI0yWfGZ/F+/gfc0qg3E2f8b73rdT9szZKbvmTtf6uyG9x0d+Wfd2H9g7eDrPTr/5PHswP3jrTXOuyrOiLvzKb8tTUVePbF9DXTex74nMw/zzWynPxlms/ueUr7zfdP3bTvzO/sd9z9n8m2seeegeBNS1+u/qn3N8KueEoBpa4phcbAxKfVDu30F9WZT55+f52duo9eSq599xDEptYd/nbQvvv33w0TV8017B2F+xosn5+Xl+IGXKHmRRFc2onTNkslUoO6KjRqm4h+6BdE94vkRHeDDcg5J1DpWgcQguR0cM7+jeZ7x8Ow0op58yKHdU6x5n+VUKgaN81nOucqjyIjqyb7uGKJrG2fyZyK/nXcEThaPs4j2GS3B62sI1ScaZmNzl900zgDiK5s+H+TeeBz/htGpFM85k48ijPHHI9WbVOa8D/n9W74px8/bz/CFgApPTZfk9m3+zxoCqj8vXvAqF4z6eb8+CT57kpD7klhEqBcVx7VHt+01S2CNOrCLf//f/OdsmpH79x3b8xbRS0VSWXf1uuz68Mt1ecJzNvynerVTalOmqFc1I4+H029IVzYXGoNSmB1xxtPuAVD63oilfc5RB1LezTUT+RL3+XmNwvmRF0x7Hwf30EWM/Qr+MrGjanTO+Rc1ZqW5LxRotmi5FyurA0t8/+zWYZwUXJBBVjc8a0lK0YgkN0fBLsEQFrkbUeXMopwohouob7JqUX+s5uQzfnJYo1XPKazEUTSkdlXBQKSxWu/nU1UP3zJE/JsjkvheQnlIIStcWsRQplNvgyXzuY8EQ5funWTSlPnZ6FrDAY23+IAt5a5FrT0QOa2WQRXPuP8lFskZ5lC3bwuMZCwqh7Z3QXJY/3/v86lQq06p2NZTpCtkX9rC8AI9mYBBWapWi6S1nmKIp7nEplVYfUiuaketSYVkKU1RX0VaLjkErP67xZhlrRD6DFM0YvzBF85cdgy5FU14wx1U0RTqOhc0T7GhG89GcdnEiO/C+j+PgyvwzbafbCe57cRyIMyib3Dl8KffZTH70AdnXIllAwcd/0/hUAqq6y9FY5cws+d148meinE6gcCE5DYdioKmlcP9uAN03Pc3h0xNIusz8YIUvm8NZOYGXf+aA+q3kg8F8YPR3BYfPi35t13Xijz3kAOTap5Z/TWL/GDr6uHc5dsv3ABmUr3Wgd4WvU5bWx6O+6x4gsX+KVr6P0qcl+ihNuziv59D6SypX+g1aeX64RC6rq+yJ/bIjf5nXLeQwwiToBOW0i/O6s94A4XtYw7nLP8edZhCzyUjhPC47ritIl2FeFJBQnHAMPNj2SCY/IvRRN9MuTo7AfLQqO+xavoWx5NuVy+cA3t9YGvzkcrKAzkUBuDxnPtzVwQI+2jVkt0roo4/Slu0Lbkc3kE/C2xifhK8akGu3oOdHmAxh+ZPq15I/4vQevjVjtVEKpZ5XBmTrts+21UZP1L7q/N+ilm/hjThJ7nNAwmgwX7y9PxJQH2xg/pfygQbRlrbPui17E/vHXv86P+pZ1pZDxcGfgLZJ/LGHnKIuff2nPT6Iwf72kWR6TBYagxwmi/l/+ME7JsMABB1ClA7TjNuyRHKd0bB8MAfWYS/G7zkGH9NWGDaR+rKHsaRrJPY77MDemg8A/3flKUy/4qqXw95f/P/81PY4gqI5uywGDzRNffwn1x67OqmazCsdqJeQ0krQA0/2zTBBC6evgZP3jpTQUjqvMwfme9W1dybKaQPNwMNL4r0zdA/PsXFnopA00PRNj6dwWUTqR3CZAfBDUWVev87yJ/aPoR9lcTssI5MGay/oGARNzslNbAOA4rDXaDID0uK6mETkZzeQQ40rpBOMVPcggc0XAL5PMENm8dP2MtN79NFHf0tDyf23F/J/1Isio8GEi8z2FIBfv57eow8dx5563MRGHqj9mACw6yn6QowLoxfH6nrhwvPYfX3YhLYLDEzWF5zXR4H9bO0kC+iYBbBFV5b1xwumiJdNE+WpAWM6AXp9jCZdoA7psAAgFjBADq3XcZaiAh2Duw2cb11h7+4Y91tZjDDB1y9MNpW2uIzqsbGEfAvjd/fI1gG9qqNWrwF4ifJFAezEax/It/AmzWTC1Z9jdIJOFqRdbRSFBds3VOYqCZJLBpr8JHkCAJIFnP5ZRKqx6VhsGw0N2e+5CCeGfXJgyXxZ9mZQvt6G9r6LlxeKhdu0i6I4uFIdsPxMu3AfE5tNRsCLHfX4svrmYiT2OzD3pbQuizjBaaT562ngsrgHHgWigHKaGQxquzXUdpvYudtQPyrVd649RmfzI7TdGkpbTWyaO7iV58T6Obqv5T71+4xBLGPBZ6XN+v1E+lOmYsJ8xZRfWe9Z/ti3iWbRTBZwaq1CXFagCM92xEnPRhPN3Vpkaw07Paw63a1Dhw696g0PJIe9CIWfQh9U7dNn6hVZAoWKKs8xLJrTr7jqcSuLsOQpQiQMqpBO3iVQuFjdhC/ql5VfrHAy2KnaVj3jpuaatH8lQkJUKGEr52xdejZSSI1VwS3OAWE6oDghqW5Xg43P69UqmR4Lzm7Nc1rcMYascFxiIpIjThTRRQaZ9Evs5YH+UQk1OOvDaIjnxHiVQqi40nUvHvzLkEWpJ+QPt+gIq/JFAYnkBnL5Ft68cj3IT7zq7wpI8H/3j1Jo3oSlGBYjz2mhWLR9vTKXlU0lZ8PDo7DTriPVDoV8Mn3axfn3FsYXx2zBukzSb9CC2DFxwa1sTgsbPONl8qOP3HNxRb0I9Dsd7H9qmMd1VVi61BbO5VqgYo9BAd+ZEVjzBt8N0q/fYNNd12L8bt3jmFum976koH3YwKCdAxvPYowKC2e4DPpVx6DNDJPvKsNLCJYiG7DDmy7D5CGLRP9c9tiXiRzeyM7EApMQPxrf+l6zt1Biwxr5BKfW9tlOxcTOzeNDr2Qq9raMe9s0GJfZXxnzijH7+wp9udOlyxi3R8hKnZOt6lsOU7eTJWydK8i80gFp65dZem9hwMBtfVErkDr/7q10toUhtjk3sY0+rv52tycLBfWo2KFuuCX1Nu7qcXiLGnLOQRy05RKaHgsTEqgoBiDCVviNqdlEFQFQrZwajSxq0tay0Vh2WCOerltwhcXwSxbQkbbUnCFRRCga7vYBwKkMyGHEFJNYSBxNtnXl3bYT27e+uyDJTeyp4gbvclV5l0/uHGZxCcNH3ngWOstrX6PhiuMY52MR3OXKqzgxBcZSUrh7w2pseDEX6+6xPOnivK7jeJ/Zhe49i5/grVDvdWecSPdYGLdz3liHS13ILjgGxdN8K1q/Fn+rIdswwOqZuYYl3HVtbZu/weRQg6adAH+ZMN/dI2vNWSxWYw59lLacCttvNwatLfeP9jZ9Y8LrF7Dr2pu72WUx+o6UpZepXR4eNfZdrC1gO/O/0aG/YKum6P5AYhVxix2FtTJTMXGKE/jFoQrO02NXiVEtmmzrzt3pEvsdmNewrDNZDFgH803PT7FV+b6oUX3ezbipOQNdp9+gla/htsHcHJQBsBfEtpzC9v21FPAM3rRz6B+dOITx7PIEpZ4Q9l7CvwTEtqf7P6QNhCSzgDnyA8BohHytIrmBnENhtgVXcHoFHFdV6WUXX3wNm0gd9cN3CNwx5bg7xI6U5uyy6FnkZCoDbB+l/OO7xRU6U+YaEcctQGD5WtVZQHBhpZR9Xm1/JtmPnPtEL7RI5kpqvoXxXQs55NC6EwruV8m6wa0xlkWoiO40g4K7v1qBv53jWB63tuVMysVlEcXLiee6L0toX/aeJm5fuSa0dBnmu3uk/L5086EG9O4xgd1mfgHNB9UFFnorxrhxfgyjdlQC2m+ABm/n/Dbu32toTuVg8mNuzfORyY64kcvbLVj3GLSsmdUBO2vwVwu5fAvj15sheRDWW65gih3O3RpQbVkK6+1U7JzWJAPM7zoGheWT96/v2ZA5Dnw+3cYgVh/zUVpjj/1g1qBoStHlzTLKFZObbEWluZQ1adJmQW2Zj6IZcNBHWFuFwhk1wGnm9QbOZeXwxSDGIR0gskVT0ekAsfqQlJR6duWBsTOVMTY+uByZPQousw7V6o/8ApECvS3V+VYJaI8ddc6U721Hn0h92cM45kEvJwkU3umWZYHVMRtgg6oz8P/tq5BByt1I7EC/t9jxrGZV6bFF0Zh/Icq/7iMybELbrSHXHgf6Fn/90vcITveWjtHQkDratvweAfurJDXwbSWFk3rcvmF8Uh+GiEKmYtofc6hn+Ra3PaaYzywbj4Mq2ITj+7m6qIKSW7CUwZ9fSodVXNt2foLesux0XFvJHWuic3/Uon+UQurHMTr7m/Bd2G6VHFa4ZbQv+0pPTR3Q+mYHprmDW8fExw4tltDCgPfx21fBrkyZyvK+eKM6DBQb/vlLeUGrX7P8Z8QHOi52gJ7TYt49ZOVebKfOHyuo+1bJuRvGWe8YFF/nYR9IAGBbopMJdR4sFwQma8dtsP67JayiJszKJrcSszq1DxuJYO+/4RicdlHUshhZsl3MVSEHsZMFdB41T0rpxxr7EVjtoXb/eJGMKOGN/J5bIDh7nMClfs+//Tx/CA0n44yB5ojXFRCfaz53ho9w/j0gNIcq5tljMc7UYXGIp8c3+L0iJExoqBl1zDRPDFTHe9QhPoIJCAcmjXlHXFtPKBI5ZEpwPFb2noP55/9dPNTK2f98m5+9dYVDUoZ484bpcpRNNdYVeQge7wH154hjuIT29bS3D3Jg9Z/f5menrndEkpFhZXT36bDQMq5wL+58+MRoFsG//UP5OGW6/PcgmRs3nEy0uJyinOsegwHpKdrb2wbRxq6jbD9/szEYUUdRtlHI/ZHDQcUd+xH4z3w+nz9WAf7XIJ0C+zUPtywPo8GtbbEsvMRvwbSL4tY9jmkcEcTTQGOQ+BfxGymafIsj9vb4b8gjvztMEARBEAQBrPEw0NMhfLOYH43/iW7CqqutErZXHOKGIAiCIIhfn9/IokkQBEEQBEGsk9/AokkQBEEQBEE8BaRoEgRBEARBECuBFE2CIAiCIAhiJZCiSRAEQRAEQawEUjQJgiAIgiCIlUCKJkEQBEEQBLESSNEkCIIgCIIgVsKaFE0DTekj7LPLIrSG4bhjdllE8VL1uXgRcD38p3x+2ISmNWE43if/n+fnMOBj9QRBEARBEERs/jEWzcmPfsBfdQxME2bAb9zOqR9Nl2FeA1lJ0bVhSmzqyx7GFwUkllQWgiAIgiAIAvjvUyWce7652gSmXRS3SpDV19KWhpL4j1az/9ArIaWVAOTQou97EwRBEARBLIWVK5pGQ0O2zv+zpeGqPcap8w40tSyY2peCdgQwC2YZ9lfJa8jKiqEPufap64r7PYE5RVM7j3QnQRAEQRAEEc7KFc1MxYRZYUrcxl0HL/8uInXUB9BnSmW+hbFpYqeh4fz5GJ3Nj9A+bMBp7wxXGGeXRZwo/yIrsn7k0Lo7jlcwgiAIgiAIIpC1b50n9jsYo4gTnHKl0v7b9qafl+QIkymQCdjSTux30AG3oGIAs1JAxwQAA7eBiqqwZGZQNjuLFYogCIIgCILwsEZFs898JKsDDNAHnsvb3DNMvgN4pXoug51qH1nZvzKQHFp3bpUybOs9h1akdxMEQRAEQRBRWaOPpn3Qxmi475rgvpfDxl8APCfDxfb7ojnIoGyaKNs5QlO7xU5k302CIAiCIAhiEVYe3ihTMWGaA+iu645t8ukEI2xjU2yNv9hUhBpyxuIMvw4eQ9MdbzOLGmrIRo3DSRAEQRAEQSzEE4Q38m6Tf/1UAtpjZADMJiMAOwBcJ9YFflvo8vXqAGaF2yvzLVeMTLVF02hooDPnBEEQBEEQy2P9AdunX3HV07GT5v/vlVCq6zj+4yuKmobUUR86bqEddrFZkYKyX+vWCXVnsPYBdOTQupOuVZawKW5ZQ51fESIIgiAIgiCisWZFc4bu+xLQfmNbE/MtjM0yMskCOlxRfPN85Nw+Hzah7dagv1vy13umXRT5tnm2nsPeH+LtBpq7I7TuTIzbI2QbpGoSBEEQBEHEZeVb57NLETdTxwBfcY4WTve5Qpfegd7L8q/yyIiT4zwGJrdkxlYy02WYFwF/TxbQMQtx30oQBEEQBEFE4D/z+Xz+1Jn4J+JQkOmEOkEQBEEQRGxI0SQIgiAIgiBWwvoPAxEEQRAEQRC/BaRoEgRBEARBECuBFE2CIAiCIAhiJZCiSRAEQRAEQawEUjQJgiAIgiCIlUCKJkEQBEEQBLESSNEkCIIgCIIgVgIpmgRBEARBEMRKIEWTIAiCIAiCWAn/EEXTQFPToIlfwwi+u6GheDlbfbaGTWiHXcRPyVWewF8TgaUdNqFpGprDhUvB81NEd+q8Orsshta1Jy8L1ccTMu2i+Oj6E8zQPfTvn7PLIjRFPf/6BNeLdVdIf4vdHyNiNELGHh9jjl9IP59dFsNlkOq9WhOG8rr0d95no8kP+efT96ZdFJVyxkBTcZ314+jpWmPLkg9c/h12MeN9g90j5KLfGHH1o5B6cIxpca+j/wTIYbl9eXs42lO00Qr6YxBxxoDRUPVTr6w3Gs5yLNa+/nXpka1Wu6nnNjv9GLLyCdrXMcajjkn+vqeSdTasbppDPqYi6x9RdZcQvcXFmhTNsMzfYsc0YYpfJfjL4pnXLeDoY6yCLsJsMkLuz5dIOK76lMUz4HUM5DKZA+jKa2tgeItafg/45Mxz6qgP1LPhggMAMEP3Q01RHzHwDNZ4nZX4p5JA4a8WcvVssEL/xzFa37NrX6xkKiZMc4xWHtCv+di7ayEn35RvYczH5bidA15s+vfzYROpo20c70cYCdJ7rTTTZUkGjNHK59C6E/8vI5MsoOOQEwG/a11Ko4NCEvAokMkCjqs1ZGNMbLn2OCAdOe/2M8ZNDeiV8FHuA8OPKPWA2o0BTCcYAUB+Dy+Tqnpl96J+7lRAXOkOqu4HZ+i+L6EPSPKsCQMZlK37eR27210Jk3UAoL8KnoueitllEdnvLYwvCoDfoocrU+fPx545NX77srr0/i2HDVVbqnON7iGfdwAAfZS2oiyWnqZ9E/vH2D5KMYVQHpN3LeQ8c7lLd3kiWWcxvEUt38KbNPuvJfci6R+yPIrznD9rtGgGZb6MWMOZC87bpVip/Jjh65c+tjdVk4mrLNeqaq8h6xhAWdSU10Lgk1I5vXhJjJsa9HcFFCrOeh+3c0B14GmPclplBUqh1AP6R6nAlY6vlWfYhLZVwrbc4e82cL5mi8EqSex3pMkeEIuStVjf15JewIJxi00EtV3/1W8imUHhYowWSji5nHksK6qFz/rqzi7jxyOg9dpPIhlo7tagX8eUWe63NMSCboL73iNeFJFMZQA9bCGwjDSgYyM5sa59nYzYpFzJYPb3FVMWeiWkFAtb46YGQMfgbg9XWxq091cRUp2he5hCqedSNKo7vH0M3NYVjwUuJLjCC5/+vCyZ5WtpDmZ2WUTqxzHMiwISABL7p9j7kpLalitwNzswTROd/YlyRys2jh0t0W+3sTltKmWBmAObQ2HFZHOId86RFJfqsSQ/gadt3wzK5gC6e+EzvUc/v4HNgKp6alln3DzGKKRaAMTUW1z8d6F8rBGjoSGr6kgAUNc8BdavH6eUsclUqsienUauPUZnP+p7dAwcCrSBpnaLHcW1lTLt4ryu47gS77FMxYRpPWOgqZ1j467jEgLRMW5qQHXgbJtkAZ2Y+SKeEmZBKIv/Trsobt3jONJCUepDFyYKAIAOTGk8WRNoyI5GXGaXRduK0pNlho5jz73nqFWPYSr7+Qzdwyxq1QHMtPxMQL57JaS0knRBxzFmmHzPYeO1uLaNTUV6jnzL5JklK94kkkH5Wod2Y6CcXoWVTpKbW/xSr8Qn9D5wuYHto76d92kXxa0S+kImDJvI1gH9ugx80tAHoL/YRq2nKL/M9CuueBqlLQ1WTdezKD4f4/gHy5PePmVW1OE9rDeKPPD/9o9S0I5yyOX76jp23b9KPPNedcD617SLk6M+gD4097zYa2LH3AEzhEiyejrBCNvYWVB2M7gVsAekGpswXwvr9AY20wWYZtm+1aonPgdOu2h+kF5Vz3rzrvhbrj1G54+nbt8MymYHtsJr/8U5roV+kMBTyjpRjvO6jmMzASxkT3X1Hw8L6C3ztfBtfvbs2fxZxN+ZseD7T78tL8s/P88P3n6eP4gUTp/ND7oPPK2D+eef0r3G2fyZdG+88p7NA3P98/P8wFUn306l5x3pennoHkj3hOfLW/cP889vI5QjpO6/nQbkVVFG+zqva+seZxnYM85rrJ3c73aVQ5UX4yykbfg7/MpqnM2fifx63uXM10P3wL/exXsMlnc7H+62kPphzPQ85fdNM4Cfn+cHUe6bz+fznw/zbzwPfuP7oXuw3DHsfPv881spbTnv1vhVjG3X8578if7VfVD3J7meRZpy2gF1+NA9cPZl1Ts9smc+Z+Nh8fbz9JU4MuOn6D/PvPmU+xX/PyufQsa8/Tx/kN8VkC7Lr6jXg/nnnyp5IF9zllnIU+s+nu9vp672FvlZVh8NKJ9cp1HHxUP3gMvH4Plp4faV8nvw9sCuM3c/+qmQIcq6E23izK/In+j7T9K+kjx1j0FbF/C59sSyzjnXhs3f7vEfVXeJKPc5kbfOF3LgdcBM34Oqwj/EsQWtYyeORXLaRVHjVoYlrg5mf1+hb5nfZ5h8h882uh+r8dGcXRaRrUvv+Qv46rcdZq1+ZfxcGJz+Vjw157aFj8/GuB3uFZN5pTPrjspnJfkSe3nuxyVhfCqh7/Lnqu3a/rzjdo5vfZxj486+1j868fTR2u4J8JdU7668zC6L0HZHjnKO2yNkF+3v6bLVvqK/d7hPn9HQkPqyZ/tDXeuo7bp9Y/sofQBOJdeS2eVHqQwmBtU+Slt86y0svaNtR98bvCgh5dm286YZyPQefY87iI8PbjKBzH6HlfXDP/RA2XQTG9U+Su/d+ePjAC2MHTLGQHOrBLTHKO8nolsY5XrbKrnqcI2HyQK2ABfx0ZxdFll5qjqTa/IW+a6wI48wmTL/d4DL1OlXXKGFsSQP9XeStSnUR1ONcxzIPoZS3552cc4taMwt6BY73OJ6XofXX2spjr8AABINSURBVHQZCF91y+rndWcK2pXzO8xzglOU0xnsVF1bn7vebdRF2hfJAk65rO/3+gBy2PsjweQ0IvoAO7aLxc6hM79KK76ClbYvd1lT+QNPvrNy+/KUso7vDLiJ7qPp9sVdjrtjNEXTobCoBHF0Mq909JUHefhhk/abyAUQgm372lyyCZr5Z9qOwhPc9+I4PWdQjtQQUe+zmfzos+0KcSFZQMFHKBmfSkBVdzlH+/lfOLcFmHk8hft3A+ghPhuRBEO6zISZmHwcCmcCL//MAfVbqV8w3xvHhAM4fOMSf+whByDXPrXM/In9Y+jo494lPOR7xDYielf4OmVpfTzqu+5hvk+tfB+lT0v0I512cV7PofWXVK70G7QUira77In9siN/mdct5PjEHZwePD6FzJ+uhnOXX5A7zSBmk5FicpId5hWky8y3THHyOt7htLhE8IVMJlCocCXcmjTZOCjBu9VmNLKo5Vs4DToUJCtbYltOPgx0rbt81hZ3T4nLbDJS+rJNfiywOTzt4uQIbKFW2WHX8k7lMZfPAXxssjS4USFZQOeiAFyeM8UjRNFSU0N2q4Q++iht2a5PdiQI+SS8DVOSeP7aLej5ESZDWP6k+rW8BX2/nG1zcbAk0sEVH1x+jrJClKl4x2NH6qMLtS+HyUT+H24EYLIEQJAPsHSYxmmYcBkxLB/MgSPPT96+lrxKodTzzofZun1+waqDtcs67j9eXeSIcZxIOfIv2sJ4/eGN0mUMFCcgZ5cnKCFEaFuwShFWmsf5ZCqYfsWVrFjyU9vKk5Iu/ENHqA4DxXcEtiyDoZ1yhglaOH294boexaI5Q/eQWQlZ3T7eognAmmDH7ZynDExBlA54DW9RC7NuJzexDbWleTSR61OxAk1uICcU0ukEI9U9SGDzBYDvk+WtSqf3XFgGKfksz6qFjeOQFhe8bqXam56qHjexkQf6PybStTiLKT5h+Tnd+wntYZNZOh0nr8VuhrqfPXZ8szpjk5Pl/B/ga5d53UKufguD+2SO2mPr4IXA2lkI85X0KOJOhd+4qQVP0CvDvZh+JMkCOmYHhaTw1RR1wy0kdwMcv2MLw9Gkyw5wWAc6ALHYA3IBB7GC0DG4ayGHHFp3Qrmd4OsX5s9oKSfyQlf4hVoT80uULzoopFndIN/CmzQ7Kb3+Q2k2kx995J677M4uJcW2YnlDVs0ui0s8/cxlIiBFGOALdwC13YDDTdySmzrqM2vktQ7WNk0YQtER49JjaXzi9nXLq4CfJa/WLeumE7a78mqRhwMsmUprd7yFcTRFUzKZAy5rTBS4M7JweBcnIK3TXTxcSKjQhlDk+FZ53NPqUUkW0BEnHxtNtkqIaOlhJ48VilhVhw4delVtxu5EUrDhMOmLSVM9SSVQqKjyHMWimUDhYnWWFVFHrAxCMGWwU7Wteuzw0M5q2vfJCQmNoYQJYofbxGMsIo+GW5yDFBXFtqy6XcVJ7tX0uUjhjWSSm9jGCJNpAoUL79hkh3S27cN+UU4PD5ve08rcup3zuKzYeKI87MY97wmIsDJNT9gh/4WFMl3XaXGHzLBClwlrk8sdABlk0sxFpn9UYgc4pL5jNNzbqJKlxJWu7+FQTxmyKPVEm3PlREyYFwUkkhvI5Vt4456Y+alk/V0BCf7v/lEKzZto6S4D2WCRreveUFoBFk0LbkmTT6gLYrevQNqKBiT5zXdl9Os32HQvfC1XgXscc6PG3pcUtA8bGLRzYH1FtL9QwMJlwfrbN8zq55QBa5d1yQLKPnqEOhqIz+nxFcTLjmzRtBWoBSpoeo++o8JF2AC+KtuF64S2AjFohK/ZKk5rySQL6JhjtL7XHPGo4sE65glOre2knYqJnZvHr5DlydO95RpMHB9NwRK2zlVleKUD0tZv5pXOt88N3NYXtWyo8++2+rGtE7F1t4lt9HH1t7tNmG/uo2KHukluIIcFQnMNb1FDDq072f8owlaeb3psK3lRi9bs8jxwXAgfPCdq5dRosIWjWM2v5oMMCvcXvxAlw1vUfE6Cs0UxnO2QLKBzDWSDhHO6jPHzc0mAs9iAaB9jLyDXSn/2yCfORbDmFK7+HNvWkmkXxd0acnnYPr4WvI3ci+EwH75kAR1p29PpAybqkrvIsJJJbcHGmbjuUTRCfDTZVrB3a1XUna+VKLmJPVWcZK7M13adin2tvoiSvxhOg0UZGSsAN7/B16IJWEo+D29kViCFN1qwfTliK1q/Fn8Tu5NsUVZOJ5Bwjxtr2/wNJocaNI37y7+7R9aaO4TFsu/pk/+s9vWZPz0L16eUdV6i+2j6xMv2LEKib5sDa9k65xl3m/4deH3FLMRqaLfGKyuuFdM1QOM82Uih1NOhv4iyVe1NUwSid1tEMhUTpziJtWVu5+mxQc6j+mjKPH7r3I4bKF27qTmDN6ffoJWv4bYR3VUhKo4tHeFzbC1+MnijOEQ0uzxBqaewJlh/D/sSkGJ7Whx8cm0xGY2QQStv9bMnLIEZnF4Bx1VVetnFF1DDJlJH/XArv3tbXeEOYQWelhaOmcoA20cp5dhYdBtQhC3y98e6x0fxBQ2fOJn2gTHFYjtdhvnuXvLtdDxpB6rusbh6RiPFXYWcclGeeBL7neg7HTLTCUaoIaulUHoxcO6Y8Hi2aI/RuegwNybZEsPdSOK4UFh5/yQF1W4YlpVSrkvbP1D29WdKymKGDK6k5lsYe7ZWv0oWKNfWqlZEd5pBwV2/Iqi8S+bJMs49ly13a9oHd7sEWjR1pzFG3lF8RPta1szqAOU0/0hDvoXx682QsosFD1cwxW7hbg2otiyF9XYqdk7lPvn07QuIrwRNPNd9eUJZ50QsAFR/U5wRsSy8rnM0yq3z6GN19Yrm8KNzspa2WHBta9bbbkdace/WFfbupBPGcYPlTicYxT3JzgcG26Yso1xhK5bRrlAGvKf6BMwfTJyC9leKxYpVKJxRy5V5vYFzWTl8Efe0/SIWzceTqYyx8cGp3GYxcFlnmMWjVn/kF4gU6G2p3vhEK9dbYr8D83rbefrxyx7Gj3LPSKDwTresD0yYsIHPJng7rdtXIYOWu6/YWyC32PGsolXpsYUNO0EfVPcRGTbZKdb2OMCfiPlAuQW2eyvJOg0v5cNyjQHfznItTiY/+vH7hjio8hr2xORxh9nAmwt7PLjLxvIKW8lUfZJudwQd585Jo1dCSkvh/p397uMfKcm/U/J5WyC6hepAD4vWwCcGq4/zyZ5HVhCKZ6bC+yKf0IxPJfQ9QbOjkamY9scr6lluZbNlL4sNaUcfQa/kUszlrcmoC2p+yEvpK/xS8jtzba36TZKW9a3jOhjYsZQRd/ss1CctnIf5EvsdpTyf/X3licAR9Z1ydIHF21d8nYcF3wdgHeJKJH0iLlg7Bkzmjdtg8nVLWEVNmJVNfkiPKb/2YSMR7P3p27d/lELqxzE6+5vwNdS4fL6fTNY9hmHTkg9ivlia7/gSwzcp+XbKY0m546gF3C/iMlrP2n+NFuNJjk9lnMWMV8XiTnni1znyEBZH0++5eLGn5vO5M5bkIoh4oIo4i9FiYqpjCwbGgXwMxlnsGF3EmvCLd6oal8rYjvKz6vhunhiojvc8zD+/jT8WVHHvHISMX2XcQd/77XGuih1rxQT0fX9Y3/fWW+jYc8Ss9HuniE/oU79SHTni+DrigbrLEBy7lr3nYP75fwPiLobFePyfb/MzER/V8Yy7HLyPBsTP9dSPIg/eOlysTzrrIF48SzkGo/28yEPQuHps+waUU1FX3vib0fqFo05/PmX7uusroP4csUSfTtZZ5Y0Qh9Y5jlTtG03fijL3/2c+n8+XpLP+IzEa7FuvC21B/RMYNqP5sP4iGA1ubVu1Dy7x7yPWl4gIYg1QnyRWwS/Wr355RfPfDQ8UHXt7/F+K5SqxvliCBEEQBEGsjvXH0SQiIHyVVF8j+RWxY6htryjEDUEQBEEQ64csmgRBEARBEMRKIIsmQRAEQRAEsRJI0SQIgiAIgiBWAimaBEEQBEEQxEogRZMgCIIgCIJYCaRoEgRBEARBECuBFE2CIAiCIAhiJZCiSRAEQRAEQayENSiaM3QPi+hOw+80GuIj9eL+GbqHig/YB/0Ou5jJLx02oWlNGN7U0NSC8zW7LHrfJ+W1eKn6i3h31DzbeZtdFuOVVfwa3tItwuyy6HzXtIuiu46mXRSV9UkQBEEQBOHkv6tPIoHCu21o77t4eVFAAkyhSR31PXfm2mOYpveb5Pq1iXI6QlLDJrQPzkvGTQ259tjzvdDZ5Tlq1WOYvl+hMfDxCGjdFZAQn4Lsue9JQTuS/luVPxWpu75PbqCp3WJHcU2Q2O/A3FfnhtXZ9nq/eZ4soHMHFLea2DTLyFifiDzF5hQAfcGHIAiCIIgA1vRlIKao3b9jCuPssojUj+MI3+92PhfKsAntwwbGFwUkpl0Ut0pwq7O59hid/QmaWhY1zwtyaPHvbBsNDefPx+jsexVfIOzvhs/7VbgVUmVqaGpZIKrCHROV4p9rt7B9VAosQ+QFAEEQBEEQvyVr8tFMoPBOR+3mcRuuvlvLvlvHOgamCZP/BlV21WhkUasOrOvsN4AuHhs2kcWAKZGq7eNIONNm71ddC0fkd1VKXWK/Y9cPr5fOfgFlKa/jds76m/iRkkkQBEEQRBBr2DrnpMswZcWknoVW97nXsQXthFkkbSsis47GyMeXE2R7Ogamnw1xhu6HGtCDlT/92kRh2oS25bbvyVvntjWUUUNWU9gDPdd0DILyO2wiWweAWxiVzAq3zQ3c1gFUV5YAQRAEQRC/GStXNI2GxhUllyLmo0yyLenN1WXoz1OYF+rtcEYChQsTBc+2fRmmWY6RUHwfTS8GmrsjtK5buNq95/efY8Oh0C6J6QQjgC0AvrcwvniJrx6/1L69OMi3mIvCkrNBEARBEMSvw8oVzUzFhFlhCpJg8qOP3PNjdA81XP0pWSiHTWTrOgaKA0GL4bUq5tpAFN/P2eVJdN9QDxmUfS2mUe+boXvI/DILyS6uxP13eyhuabhyWHb9DitFgCuMk08lIJ8DXhxj/PwcqcYmzAsTBZFCZL9agiAIgiAIxvq2zi1mmHwHtl9lULgYA4cpaEc5tK73cLU7Quuus8TtYadV0WhoYOpuAoWLAZqahqJQ2KYTjLCNnSSAaRcnR330ofHDMDm07o5xvxVwwIcrbPA5UW+h2k6H2yWAKY5Xf47RSQOQ/UOTBXTMl+gepqB9EVZFYYVdFAMf6zr22iP0fwCJ/VO0Dj/CwCq36gmCIAiC+NVZv6I5/Yqrno7jC8DaphYnxPMtnIZsCfePXCGFAKB6vEBGMiibAzS1FJqbJspSurO/r9CH+1S1gabHD5MjhVVShShi1sBt6HUA1RrwKshSyq2TLwYwfU68i3rbbGhIaVfqPMVgdnmOUfsUb9jmOX9/HDcBgiAIgiAIL2v+MtAM3fcl9Ks7yEA6Rb51j2NzjBZKSGlBgdBFrE3XaeiFyaCsOD0tTmE//lQ1C9x+glOYlR0AwE7FxM6NXxkNNDWuZEbYos5UTJjX2yi9VweVj8rkxzaOXUqtHTyf/VJHfea/uYJA8QRBEARB/JqsR9Ec3rItZ27NHLy6ZcrLlz2MTROmWUaGW+nMax39oxNlOKHEfscTtzKx31me32B+A/YxJOdXiZrDOC8SXwa6xY5pevKcqZg4xQk0l1JtNLIYtcfxypMuw3zkoZxMxRvHM1MxvQq9OySUyOew6fnKEUEQBEEQxMq3zlkwcHAfzCvs3XWQScL/BHe6DNN0XqrtahGDnwPIt+QnfQ4DKfL59xX62MOpdbAmh9adCfNC3GGgiT5KWxpKAemyU/b82YDtbLHFzqy6fX4K30QnYjH/OfCT8XcmXv5dRKph0IEhgiAIgiAArEHRnPyA5UNYMDeZpS/Kg9UBzAqzLy7+CUq/w0D83l1ZCc3xz00i4GBNuI8mO2UfIa+coM9OEgRBEARB/JtZ0ycoiV8Z+xOWUT6nSRAEQRDE7wIpmgRBEARBEMRKWPOpc4IgCIIgCOJ3gRRNgiAIgiAIYiWQokkQBEEQBEGsBFI0CYIgCIIgiJVAiiZBEARBEASxEkjRJAiCIAiCIFYCKZoEQRAEQRDESiBFkyAIgiAIglgJpGgSBEEQBEEQK+H/A4H2Zo7hvr+LAAAAAElFTkSuQmCC;" vertex="1" parent="1">
                    <mxGeometry x="40" y="50" width="666" height="110" as="geometry"/>
                </mxCell>
                <mxCell id="3" value="" style="shape=image;verticalLabelPosition=bottom;labelBackgroundColor=default;verticalAlign=top;aspect=fixed;imageAspect=0;image=data:image/png,iVBORw0KGgoAAAANSUhEUgAAAYMAAACvCAYAAAAffbLrAAAf1ElEQVR4nO2dX2gc173Hv7n0sX2RkKjVjdxCS+yAMLKs5hoTtw8Nkaq1pWK95GLJOGBJhEUYoyw4unApVDGsJWPEEiQbDMKlebBMd+11JZM8tA7GrdayMCp2QgK1NmvpWmL7cgumkGbuw/w7M3tm5szsald2vx9YLO3M+X/m9z3n9zsjv6JpmgZCCCH/1vxHvStACCGk/lAMCCGEUAwIIYRQDAghhIBiQAghBBQDQl4qNq+fQONkviZl5ScbceF+TYoiNSCSGFxobESj5FM2MdbncaKxEY2NFyCbnpvXTxhpT2B+XbFwM0/HhM971qnx3Xlsmrfdv4DGxkacuL5pJzW+U32A8pNm3vI2lXH/glEHo47vzmMTm5h/1+wvs+5efaDfa9XP6lOFMahHX1ntlbTk+gnvfgtol/fHf+7o4+U/VpvXT9jtVK2H0QdBxrdaxjk/6RoLD5qPJTB+rkvhXn1eye5TqvP9C+g6N443DyCwz8QyHH0t1ENNVHzmruMjjrdqmnDzKhjjufWr3/0LAXOzwjEKi1Yxz7RrJxu0hoZB7dpT16Wn17TBhgatoWFKW5Km8ftI8pOms/NeOi+kM8s+eU17ZibPT2kNDQ3a4Pyzsvym8kHtMz7nl7yvCR+zDL1ODdpUfkmbMutj1KPh/JK8niLmvX7tcpRTz74S8j6/5HnNztOfZ/ODznzyU575Snl6TRtsGNQGT3rXx6iVPjbue55e0wbL5q6rjk+X9H7xGL+yNthX5HPHIx9Zv5ljrv4R2uLZtiVtSvrsCRj96nuPJ0a7rT7Rfw+aU8p105a0qYAxc96rPh+j8mx+UFpG4LNQyRhFIJoY5KeESWs8SA1T2pJluOSfqbzxcEgNq5iX7JpLdEwDZt1npvW6rpUbuID6uutQ/mDLJ7Jz8PXJee3pNUsMrs0PWoPs6A9XX2ma+cBPaUuWwR5UEIN699Uz7drJQe1a3lwMhDBSnv3oZ1hlCA+6kvGSPGCOee6H3t+D8888x1O2UCjLxad9XmIQxZDJRcR/Plr1qkgITIz58VTTzHFSF4Po86msFvODiuNbCbY4OcbrqdezofdLRWMUkUhiYK1ogla27p3B02va1Mngh0X68Hh2nn7dMobzz/R6yFbfrk4f9FrRyYyjFkUM/Cfv4LwtEM9k5RptmMoLxv680S4/MdgBfRWJIMGRfORGxL36NPNWMRLBu1an0PsbRn8D70xrzpsgQREXCmViIFlNuo1eWTozjYeht9sgGnEt/E5N3gshVrlV3BlURdSCeTY/aM9Ra2yele8mXQuP6GMUnWg7A8FgDBrG3TbY7q2oS6mlxsO1UjUwHwqzU/TfxQ5xGttyA+ycFKYRtO4zOr/MrSHW0dewLinsDJz9JXPFWPV0rMYlRunkNe2ZT31EQ1GXvgqFZEUY8EA4J7y3e2HpvFy4pCtBQYBUVt7O1d0zbcmYo14rW9+H1PG8+LtL/OrivOY2mOXCKDc0uuDLdhryNoR3VYR3a3nZiaBPkBjYz9b2uojk9R08P6UNnp9yipZLWKszRuGIdpqopR/nL8UBALlsDkAcRw42I/+7YeQwgS6VwMa5LiGg0oUJPTcMt9mBlr1DOaXqxC89RqlUwtyxZgCdOFMqoVQqoVQ6g07zpvV5pM/pP+aG9qKx8TO8eaUfzeb359LygFFLP+ZKJZRKjzHbC+DsopF3CXPHdgfWbfP6CTS2DSN3dhzjAJAdxl6z3W9PGHc9xNo6sLn2EACwb3czsH4HNzGLx6VFPR2A8ff60Wxm3DuLx1Y7S1g8q9RV29tXYiDRFfB2Bwg3r6cx0TuL4wf867tvt9VirP0th/iP/PpcD7h1PZrF4yt6X+Un7bo0H5vD4uvD2CsGuA+c8ei/Taw90ue1Jy3N6Dw2h9LtcUx8JA+a+9LSj/OXHhrPyxoK2ThaW2D0meIBBQC7fxRH7tYdo/zdaO3N4eY9szZrKGSB8Z93emcAANiHxBVzXgSxifl3u/Dw0nn0t6gFaC/cBzrH7PlqfVZnEUccs6vl1xbPwjXe4nz1+whzWVb76+9j+PVFa8y36wRWfrILE+623R5H7hyQGDuO1l79uQfsZ9+fMGMUnshHS5uPndeNIwD0HsHhFqBzzDBc57q8TwdYxrWEx4ag6Lg6bXUWcQA4u+hq/AS62oaRQw7DbaaImCdVTmB+XTy1Y6MLlVHSpVmM9z7E2n1g895N5ACM355Df4txw3oBZTJ0/7cYzuptU5446/N4fwh6u8beNPrKaeDjvXEAORTWdWMHGCc0Wvoxd6UfuJ7W23h2EWcCDGc5Ne4rY2wd49rSj7nSIvC28xTF3iFg9jeCuJWRx2fngIdrZs02sfbIKQ4O1udxonEvbvY8RumKd76dYyU87rmJvV6nRcwTU417MZx1Lk4aGxvRdc4USEHgDpzRy7TSuhY0joWP89RX87HzmH3UhRPvpjFhPEdo6UfirNqiat/uZjQfPIJ4toA1PUfsfh3I/W3NaM9nmDDnlIDZhsbGRn2xIrbf4zSYSX5yL4azplDKDLS+cDIXHqVSyXPubt67iZzZbucVrD2ySqzeiaD7F7D31hE8HrPlovnYHBbRVX6yRzKeqh9b/OYMwTTqcuCMIVbN2P26/twD+rPvFuxKxigSlWwrxG2ftb0VXR9ep4lEN9P8M5e7xL21sreiXq4P010j3TIKp3dMf3vZCZmT17RnQhDQ4UMX7hs8qW/FbFeJSgBZ0xxBdkc/LGlLRpDVih8Euc8UTxPVr6+8t6y2L9zDvSC6ifJTWsPJKW3qZHkcRAyS29fkeXqfbHK6qaIGY616y1wT+Snvtoo8NeeAe87YacvrJ849Z1tEd5hsLDz90ZqQ3nXyzHE67uRggL9dmB++2EH+8mdG8ZSRcpBfKxunsn4QYnTVxcOlZrmGyq9XMkZRif7SmeBKAICJtw1VPXAcs73A+O3j2O1WZdON0FZAwlhBHLm1F40ftWLxUhzABLosl5G5UxBWoR7khrownAXGb5dQMlfdphvlSj+aW1oR753F8Z+7Ehqr/fH3+tFs/Jwb2osLf5Tch1kkevRfO8ceY/aRz+7H3V6rTRPoElct6ETngcM40gvkhoYxAed2Xt9mArb7TFjpiO4mY8Wqwrb3lVotMNzmd457E/MfTSDecxxnriwCH81j/nfDwKXHKK3O4uHbLrdTSz/mFOaJE31FK1+xBq1EnSvI/B8ngLNvulwTeVx4e8K5i/LC2F3Zrh69fscvQXD3yDDcSujEm2ftXVTz7n1AtoA1bOLOrfIVZxDNx+bw+NJDdLlXn+vzSD+axeMrCewLlaOczetpTGAciWPNaD42h8Tf9gorXt29VUbUVfH9C2h8+yFmV31cSAfOWPOrWu+G2G5wYZdp1v/Amxg/l8b89c/sXaEinmNUAZHFwHQljN82fOlWrKAZ/VdKOHOgGc3uxlkuouNYe7cRjY3vA78pofReAV1WfGAci6uziCOH4TbnQ6e7UcpdH+Z21NON0rIbR3oOu1wH+sMKABNvi/57YOLcRNl94+/1w/Zemm0M6KSWfswJ7i59y2y6iPZhd4ue1+Ee061iPtyAc5ssEcaAmEF9+kqO+VDsvXXEqvPjS9AfDslDt3b9fQxjFueNuMbxnpsYfmT8bvTpw49+i0JgyZUg92Nb7ku7dfjsXLlPPj/ZhQnBtef90pjet/FLsxjPDuO3gsg1H5vz9g+v38HNrDmHXHGDllbE8RBr9+/gZrbcRaRC87G5cneb4bqsisf6/gXsHcph/LZtnDvHSlh8fRjvW/0kPg+AvUhwzU/XwsjtItq8fsIQAgVhbunHXElxsReAHSNZxLg4n6w+7MSZ2/swPDThjAcqIh2jCogmBuau4OwizhxoRv9vZhHvncXj/9odoFLmW3mGCKwewc02w7icnbVE5bN1M0A9gS5rFWYYx95ZPLaCTqZhvSOs5IzVtDVBTmB+vRP97odqfQ16yMb50Iv+7viPduv3RfLX61j+dyPWYK72xYdAN9wAkMPwf5tKrwuOXq+wq9469ZW7PcbOqOuRsPMw7mk+NqcbVnd8KTuMrqF9WDTvXZ/H++LvgGGUjqM1TJcoor8hu6aeQOKT37x+Qm+z4JfuHFvEvqG9ZYJgisbcsX6cuT1u77CDWC8gJ+xG7N0ArJ3S4bWbjnsqwTNWE4X7F9D49gTGb5cvSjrHjADp+hoewhY7PZ25I/2ts49cCyPHM2POn1DPkOJir1LW53HCXGRFOYDgwh4j++1nlbfWLaL4lnSfs+pZ3nL/tvsctej3tH2szqOV1hu81nFP0Q8u8c/L/Ihlb9XKeeZxXNDrPQP/s+ia5Py8/E1gKwbjeZxOfPnML2ZQr76yy/U63ulLGP+v4tFGv7ehy+6z+j7oCKNr/FxHAt3Phny+l/t9zfRex2Xd8Rt/33bA0Vvl45iyl8KC+t47ZlD+prxHDu5jwEL8xTHnQs2Z8rps99vHRkllcdCp804b4/iLAFplY2TbqXDHfyOJgW/wSHIO3vnShdgolzEtG1ThJZenS9JgYnmALoKBk9RZ7SxvQADZka9am61J8cDnHY2Az9RCnfrq6TVt0B1IVqivVa/ABztovpSjJgbuh8bnIXIE8tyGUr44KAsEWu+L+C2o3AbEdSZdDBAr9bFz0eEdnJS0QekdA++DH46+8fuzHV7ppQcE1N458BOd7RUDsR/Lg8N+L3CaL5lGHaOoYvCKpvH/QCaEkJeHPC402jFC1fcSKAaEEEL4/xkQQgihGBBCCAHFgBBCCCgGhBBCQDEghBACigEhhBBQDAghhIBiQAghBBQDQgghoBgQQggBxYAQQggoBoQQQkAxIIQQAooBIYQQUAwIIYSAYkAIIQQUA0IIIaAYEEIIAcWAEEIIKAaEEEJAMSCEEAKKASGEEFAMCCGEgGJACCEEwHeiJvz222/xzTff4F//+lc160MIIaQORBKDb7/9Fv/85z+rXRdCCCF1IpKb6Jtvvql2PQghhNSRSGJA1xAhhLxcMIBMCCGEYkAIIYRiQAghBBQDQgghoBgQQggBxYAQQggoBoQQQkAxIIQQAooBIYQQUAwIIYSAYkAIIQQUA0+uXr1a7yoQcBwIqRX/lmIQZGDM6+5/o+R59epV66OSrl7GL6iOfh/znihlqlyvpAxCiBqR/3Obiikt4fd/eIof/PJX+Glj+eWvPr2KeziIgV/8OFS2osEYGBiQXpd973U96H7xHr+0MkOmknc18auPVz3CtN/9nV/e2zEOhJDo1EkM/o6lO18Ae3qkQoAvP8G9je/j4EA4IQAQ2YCIxks07uI1P6MWJAR+xtbMW1ZeNY2gSn2qRa3HgRBSGfURgy+X8QVeQ09ng+Ti37H01//F9/9zAGGlQLbyla1QZYZbvO53j7s897+iAQ8SgSCDuZ1GW9Yev/JV7vdLt53jQAipnDqIwVf45M//wGu/fAtSKcj/CV987yAGflJ5SarG1TTcXv57rx2BmFbMQ1UQ3PXaLuMva4efW8cLmVFWqfN2jgMhpDrUXAy++vQe/rGnB2/J3EOlJfzp8+9Gcg8BTldLWMPhXsmqujlkRjHIUKq4g6rtHvILwlbbf1+PcSCEVEZtTxMZsYA2L/fQnS+APR2h3UNuorgVxFW9+3svA2R+71de0CrXvYvYDtxtEFfgfoLlbpds1e5HrcaBEFI5NRQDMxbwltzYG3GEn0mFQg0/o6rqv5e5fMKWLxp6v5Wte0ewnYLgLj/Kij2oPe7v6zUOhJDw1MxN5B8L8I8jqODnhw6TXmX1K4sLiNfcP6vEDMT6eq2Mw7THq86yvFTcPn6/e5WjmkaWPuwuhBBSGbURg4BYgG8cQYGoK0e3z14WyFXNW2XFLDP0YepdaRv96uZOE7Wseo8DISQaNRADPRbwXa+jol9+gnv/9xp6fhFtTyAzElFPr6gY8O02StXMX7ZzUV21RzldVMtxIIRUl20Xg68+vaW/UyBzD5WW8Ps/63GEqO6hMC4Y2TVZkNPLqAX5/GX3hEE1mBs2r6BYRBS3jju/Wo4DIaT6vKJpmhY20fPnz7ejLoQQQurEv+UfqiOEEOKEYkAIIYRiQAghhGJACCEEFANCCCGgGBBCCAHFgBBCCCgGhBBCQDEghBACigEhhBBQDILZyOBULIZY7BQyG/WuTH3YypxCLBZDbCSDrXpXhhCyLbz0YmAasukHkVIj8+sEkF5BsXgZfbuqXbsXg6a+yygWi8juSeCDDOWAkJeRl14MKqOAQq4bPW801bsiO4KOw0ksPCnUuxqEkG2ghmKwjOlYTHc3xGKIxaaxrHBt+aLunshctK+fElenlhvHldb4vj2xAABIHZWVu9NYxnRsGstim0TXzINp/Xfx+kW7NZY7x/jYu6EtZEZOIbMh9rOrHx5MO9Ke2hE7ANe8cLipfK6Z/eS413bzLV/U2yf2l3PnqF7uzugnQiqnRmKwjOlYL1LxNFaKRRSLRRSLo+iQXssiiRR6xQcwl0ACWd1VMQYsJD42DNkypjsTWBjLGnkK+e7qw+ViESvpbgBA8oa73J1KCr2dBYwUiygWV5CGyzWTS6DdvJ5Po3tyRjdyD6bRnmhD1uyHG0mkjopxjgUkOmfQmi8a/ZhCryUky5g+uop0vmj14+W++u+Gli/2YjW9Yo/tTB/0Wm0hMyJe0/up/aK6zC8k2tH+ZARFY46kLpnzTZ+PauVm0ZZoj+iCJGRnURMx2MrMIAUgOWQ+VAIP7rqudeCddDeQu4W7liFLIntaNOGr+FoM5poGsdpsfI1VtOHVmsYKupHOm4LVhENd3S7XjHB91yH0xBdQ2NhC5lIK3el3bKHbP4rs2AJu/cUWkuQNO+7RcTgJfP61sOJ13itlVyu6J++q76zKdm3lu5kgFhbvlgetH3yMRC6JEUuwmtD3P+lwdYunsWLMqaY3etCdK6AAY67G0/hQJoYbd3EL4jV9rqbu7Ny9JiGq1NBN1I1WiVHdKqxWkGcHRm8koa96q+kGMlwBvwY+3Ak7CdFox3twyOrHJvTNFDG6X/+trTXkat4wgEAHRvNpINHu34e7+nA534oZVYNu7M6K7s9ptR7tOG2s+GWunHgrWpVykdPddchemOzqw2VjnAtPFoA9r5YvWgBgo4CFnF2fmOCGJORFp4ZisICC4uq98CTEA7Z/1DIy2TEASGGmYj9uB0aLRRT/B/hgJ8QYvIyTi9WC2O4tfP15QALRoAqGeyW9il5Zux9MGwKpaNAr3hnoYlc0XGKrRwVBsITMLKuAapjl1h92+9/gcHWGEzdCdjI1EYOmN3rQDQh+WeFa3wiSjmvLuDsJYGwk9FHOjsPJ8rJb2wC4DaUiu15Fm9slJbB8URZ8NDANofRs/hYyIwrvLmxk8EFiAcnDQcbGcCdZsRRIXCmOmmP6aMq5OhZzM/pMiqIwAah4Z+DM61VYtdp/CEmH6EvcZJZY6H7+lGIxTW/0oHuyVz6m+w8hmePxWvJy8p2alLKrD5fzwKnOBNpjCePLbqTzl9G3S3dRrIrXxrLqK8/OhHNFOJZ1Bj/3j+rB0kQ79OyTyO4E148nusvL7KXkDdsN5EdT32Ws4BTaYzHjG71/xXamjsYso9idXrH76cE0YkdFc1metvYYBwuEb7rTK7i8H9B3bllMx8wxhT5nzPbsH0V2LIbemJ46eSOLZG5GrVhrrsZg9iTiaazM9KFJVi7Ux4iQncwrmqZpYRM9f/58O+qyA1nGdGwGrflavXC2XeVtITPSjsJQhUbrwTRidw7RLULISwhfOvOlFa1x9VjHy87ynRS6f1hJ2JYQslOhGPiiH1lcPcq/TRSLxdA76RWDIIS86NBNRAghhDsDQgghFANCCCGgGBBCCAHFgBBCCCgGhBBCQDEghBACigEhhBBQDAghhIBiQAghBBQDQgghoBgQQggBxYAQQggoBoQQQkAxIIQQAooBIYQQUAwIIYSAYkAIIQQUA0IIIaAYEEIIAcWAEEIIKAaEEEJAMSCEEAKKASGEEFAMCCGEgGJACCEEFANCCCGgGBBCCAHFgBBCCIDv1LsC28nVq1cxMDDg+XtQmqtXr5Zd90rvlbeYh9f1sHXcDsx6BrVBxsDAgG+9azkOhJBo1E8MSkv4/R+e4ge//BV+2lh++atPr+IeDmLgFz8Ola1pRNz/hknr/lm8rlKmV35+5dUCv/qEFbmge+oxDoSQ6NRJDP6OpTtfAHt6pEKALz/BvY3v4+BAOCFwE2RUvO4Nc11VCPyMLWCvrmXfVUswVPui2tRiHAghlVEfMfhyGV/gNfR0Nkgu/h1Lf/1ffP8/BxBWCrxW3+LPYQx30ArUbbzDrIZVXCfbafhUXC+VuMz8vqv2OBBCKqcOYvAVPvnzP/DaL9+CVAryf8IX3zuIgZ+Ez9k0MLLVttfKVMVIue8Tf3cb/yjukSiulDDI4gFRXC+yfpPVuZbjQAipDjU/TfTVp/fwjz0/k7uHSkv40+ffxcGQcQIT0XiEMa5hV/Hua+I9bnePX0BWJh4qZYbFy+iqlhW2bvUYB0JIZdR2Z2DGAn7h4R4y4ghR3UNuY6LidqlkRe7eAYh18SrTa0ex3TsD965ArKfqKSeVcsT8azUOhJDKqeHOwIwFvCU39kYc4WfSOII/UY5DivfJjLno5lBF3B2Y9fJbUcuM5na6QfwMdBBmW4LaIyszTN2qMQ6EkPDUbGfgHwvwjyOoELTC9vM/+xk1v7zcBkzMU/xZJWYga4fsnqgrZ1lAVvWEj2wV73dvrcaBEFI9aiMGZizA46ioHkfowVuyOIIiQf552bVqGhuVvGQGMkyZUeoX1vCr3hM2ba3GgRASjRqIgR4L+K7XUdEvP8G9/3sNPdI4gjoyF4vXUUXzdzcqfv/tNlbVzF+2cwkyxmLaIPwET1YP989e5ajGXwgh1eMVTdO0sImeP3+ufO9Xn17Vjf2vflruAiot4fd/0IXirQhHSYFyF4v4XbUNh4rbI+zJHJVrUYxgmACwiisnTP7bPQ6EkOqz7WJACCFk58O/WkoIIYRiQAghhGJACCEEFANCCCGgGBBCCAHFgBBCCCgGhBBCQDEghBACigEhhBBQDAghhIBi4MvyxRhiMeMzksFWvSu0kcEpsz6xaSzXuz5VwNHHF1+GFhHyYvLSi8FW5hRisRimH0RL351eQbFYRHGmD03VrVp4dvXhcrGIYj6N7nrXReTBdGSx7DhdRLFYxEp6R7WIkH87XnoxIIQQEkwNxWAZ0zHBJeBwc3hfW76ou2gygjvhVEZYgzpcJ0Ja4/v2xAIAIHX0RXGvOPvC0dYgHkwL/XAKmQ3h+4sZZEaM7x8YfSau5r3SYguZkVPIbIj1cvZx7GgKyCXQrjK2O8Hdhi2jL+RzwuG6cvTFMqYdv+v3WmNk7pDEOelwffmV67pGlxmpMTUSg2VMx3qRiqexUtTdAsXiKDqk17JIIoVe0WjkEkggi2KxiOwYsJD42HiIljHdmcDCWNbIU8jXcKmY7ofkDXe5O5EtZEZ6sWq6popZtCXa1VxcGxmcOrqKdN5o5402JDoFYzOZQGGoiOzYAhJHCxgpZpHM3cLdDYW0WECicwat+SKKxRWk4ynMZLZst9WNJCAdW2D5otieneFu28p8gMQeyZyB7lbs/dxuy0oarr4IIJdAe2cBI6Y7b3LGEI8tZEbaPctdviheW0H6895wCwFCKqQmYrCVmUEKQHJIYgge3HVd68A76W7ANFQAgCSyp0UTvoqvhdUZrAfuBWfjLm4hjQ/7zF7S+yJ1J9gUbf3lFpD+EH27jC/2v4N0PIW7ppDE03hnv/5jd/odhyAGpgWQvHHZuN6EQ13dWHhSUG7WwuLdKu8G3DvJCLuOybsSA7+MjxMLjnna1PdhWV/404103lyQHEJPfAGFDQAPPkYi557Hdrl3J8VrTegbSm5DvxHiTW3+D2QAQDdad5V/u1VYrSDPDozeSCJ1NIVEZwwJAEAS2R29+vdho4CFXAoLsYTz+7GRwKSFJwtYmFyAO2lyKLjYStIG0XF6BemRdrQbmSdvFDG6v+JcMVosYjRi6qa+y8g+iaE3lgKgHxK4bAmwfJ4qE+/BISt9E/pmigCArcwqEO9BqyzNxtdYRQopoz52XukKKkJIOGooBsYKSeFBKzxZAFTPy+wfRbGom4XlizH0TqYwk3lHeLhfMOJprER0pTiNmoDCqtYzbcXoBrEP0N1RnTFMVywIhmvR/XWIvus4XUTxtJlXO05hBZf7gPJ5WkAhB6BCYWxqbQu44wVexJCXgpq4iZre6EE3gNSl8m18U98Iko5ry7g7CWBsxHZbKNJxOFletvEQrhaqv+E2A41Sn/6GJEhrsWUHc0X31v5DSOYS+CCCr7jjcBILiQ8iucsqSQsA2NWKbodbz+u+VxFkEtXQdwZF9yeSiLaiNW7ne2jMOU+3MjNICS42SyxgxBcmFYvxG9tdh9ATT6GXQWNSR2oTQN7Vh8v5NLodJ05MQ9iBUce1XqTGsihKfasu3CeJjqaAsaxzhbt/1Ag6t78Ap4k6MGoEjUVfuCk25jsTsc4EFpBCr9ie/aNG4Nf7lIwnlaQFgF19+DANIf20HeB3+PX1YHLlbqJKcJ/o0QO35pzpOF1Edo89T9sTbcjO2PEs3S1pXHsyguyYarmysTX7qQl9M3rQWBx3BpBJLXlF0zQtbKLnz59vR112HMsXY5j54Xa5T4jIVuYU2p+MqC0CCCFVhy+dEUIIoRgEYbmXdsTLUi8fZtzFfDmQEFIf6CYihBDCnQEhhBCKASGEEFAMCCGEgGJACCEEFANCCCGgGBBCCAHFgBBCCCgGhBBCQDEghBACigEhhBBQDAghhAD4f5AG60wCCra3AAAAAElFTkSuQmCC;" vertex="1" parent="1">
                    <mxGeometry x="90" y="190" width="387" height="175" as="geometry"/>
                </mxCell>
                <mxCell id="4" value="" style="shape=image;verticalLabelPosition=bottom;labelBackgroundColor=default;verticalAlign=top;aspect=fixed;imageAspect=0;image=data:image/png,iVBORw0KGgoAAAANSUhEUgAAAnQAAAEHCAYAAAAnN9s9AAAgAElEQVR4nOy9f2wj6Xnn+Z0ZI/tXb3CqGbrNuEXM4TBntiMLgUXkxhP19u5hV4y7BG1aRHwz2xBvND5ytiHAhiDBo2PjAgdDaABR9Bin65hcTx+I7evecVPCCqqeUAgu6bRm0omKvlhW3JzMBe6Txs1Ml6fgcwaXeJ3M1P3xVhXfqnqLLIoUJXY/H4DoFln1/qr3fetbz/M+bz1mGIYBgiAIgiAIom95/KgLQBAEQRAEQXQGCTqCIAiCIIg+hwQdQRAEQRBEn0OCjiAIgiAIos8hQUcQBEEQBNHnkKAjCIIgCILoc0jQEQRBEARB9Dkk6AiCIAiCIPqcngg6bTUJSZK8n+kyNNexao79llx1/wIAKvLWuTk1cP4szSTK9QBlkiTkq/ZRKE9LkKQ8GrlZ3znTIwiCIAiCOCp6IuhCkyXout74bGbYD6cjCAVNpJqHJMWRtf5ejHvFmEjkVfOILwKAgvRQQyyGJkvQdwuQAWChAl3XUVkIUo6rSK8DmBjHmXDQwhMEQRAEQRwePXK5MquWZfnS9nYAAPLTMK1djQ8TX4CSipoWPNMqN5YFIKOwqzvEYa0om3nIKLwQc2ZbzbPzHIJNxvizTEZqdzageMoqY9BXqGkoXzYl5XoaUY91j6x2BEEQBEH0nk/1JBfLqrWexOBuCZF7TEYNR2JIXNGR4A5Vc0zUycUaSpMhqLkkdiYArAOWlS0tzIT/LYOKPgvcMsXXYhzSIn9cHpHdQaykFGCigMoLEQAa9u56y8HIIi5lIU/IUNaBzKaO2RFn7s7jCYIgCIIgekdvLHQjs6Z1TEH6UhIriwCQwegIE0Li9XKM2FwJM6cBt3XOtsyZ1jf2qSDjOJf9LRdrLP+FinleFvGhNBRkULmSQOTOPCQpivQ6IBeXkAgDsTm94ZJFBhVdx9I5U8yFy0iSNY4gCIIgiGNCW4KuEUjQvpixxBXWFebmXBhFrF7GyiKgpOYDpNdYAydJEqIp01nqWEvHrbFrChNouj6LGJxr/EqTjVV96rW06ZLNIi5JmMcSZkes7xWkrwUPzCAIgiAIgjgsggu6ehnzloiCgvQlb4Rqc2KY3WzYzzJnY0A4gaWi3DK92JzYAue0zjXWyBV2mVCzUFJR5g5djDeEoLU2L6faQrUR3crqu2K7UDMoFGXg3h40qNhaBDBRQG3OysXpriUIgiAIguglvd2HLjwIK4Qhe5kJuNDkEgoTANbTmG/iemVbj8SRRQYVvcbOWYwjuarZgsyOZnVZzrwuVwDVLWbN40RedszatkRD+VIaykQGmQl2eGSyhNJcDCHzvMzFBELVvGtLE4IgCIIgiN4TXNDZ1jQAkFF4NRF8yxGThgsTnIALIXExA0wUMPOs4BxzX7qVp2vmlidAXIpi/yKz1impaMPqZlns5mLehBxkER/LMisbtx4vs8ksfbMjIUROA5mLFzDoOM+Mcp0o4MKIFfGaRXz6KvbbbAuCIAiCIIhu0VaUa2iyBH3ygDlZLsyJAmoX9xEdy7K1c8+WkBiZhX6FHea2dsXmdOhzMPehs7YgqaE8HbWjXeViDTP3oogvxpF8utZYB1ffww6Y6GOSL44oACsKtuEw9RJ5ugCMAHvcd9rqPIvWRRpRifthPRtw7R5BEARBEET36ZnLlVnnTMueGfWa2VzCmVYnVvMs4OHWKFsnh7gZkSqjUGQr6pSbtxGZa1js7KjZ+j4UMMub2+W6x70pwu1ylXIqQpMJuO18e/dclkDPur5hRGizYYIgCIIgekxvBJ35tgZrSxCAWd5mR0II+Qig4YhpZRuZZaLJjGaNW1Y+vYQzYBsUszdONIIurE2J7+7twG+j4AgX2ep2ufq5bO3gDMfvMcxaom5iEJF22oUgCIIgCKIL9GRjYfUWc5XyW4I4fndvyjtRwIUR529ysQZ9MmS+/SGNqGRuIcxv8jsyC30TzJo3F4O2umG/omsPYAEQALAw47G+tV0nz0bCbE+7dtcVEgRBEARBdMpjhmEYR10IgiAIgiAI4uD0dtsSgiAIgiAIouuQoCMIgiAIguhzSNARBEEQBEH0OSToCIIgCIIg+hwSdARBEARBEH0OCTqCIAiCIIg+hwQdQRAEQRBEn0OCjiAIgiAIos8hQUcQBEEQBNHnkKBrhvYOXjpfxMnz17GmcV+/dR0nzyuoeo4r4vWdoygoQRAEQRCPMiToWvHM5/HDtedxPgRgR8HJ80Us/OQEzvHHhJ7DG2vncfmZIyojQRAEQRCPNJ866gL0FcMyPlgDs8hVfnbUpSEIgiAIggDQJxY6bTWJ5Krp86yXkZQkSK0+OdU+1/q/X9rNfu9bqnlIUhLlerODVOS5tjpaulkWllbe8olX85D4v4k+4RD7xLHq+wRBEJ3TF4IuNDmD4VSUTb7hBEq6Dl3Xoe8WICODivU3/5mLsZOfnUHhbhzSdBla82z6A1OciMTrsUUowluJzX7BFAauj/0AQvggbreHQ3SL69aLcarmBPk+LHMfQRBN6QtBB8Qwq1eQWVxxioD6PpSJQUSanBkKx5C4UkMBacyvaswix0120ZQCLMb74GasoTwtQRrbQWGXF681JlilPNq/XcQwy4vfbpRyNelblsxmo9yVBQXpIV7Udb8sNiOz0HUdsyPdT9pCLtYa12S3AKSibfQj89q6b/iBrKz9Dd9utaKM7Bgv6g6xTxxq2gx3n5AX410UdUw0CvvYRAE1fn5AGtG+EXVN6kUQRFP6RNABbAIuIRE2b36SBGksC6ynEfW1jqjIS0mU6yEkrugoTYYQmiw5LHm1ogwsVBzflSZDR1pTEdrqPNLrGVT0EhJh/pcQE6wTWcT7ZtIGYi8UIEPB/sMoVsIJLBVlKKmrBxDZjy6hyRlkAOzs9UsvboNwAjMLAO7u9XiMhpB4tQB5PY2rD4X1kyAIP46/oONcjEyoMXHGrDyup2DzO5t6BKNFID10dK6cZhar4Ki4mlIgFy9AbE8IIXExA6xv4LZHILncPw4Lgdgy5LZietuOE9V2muy7aEoBkEVckgLUW8agLU7dZWn87SyPN82W5TVdvvb39t+ierhaz+HCSqJcLSPZttXMlQ9/fr2MpBRFeh0NS3FOZfmOZQEoSA+5XdTu9JxtouaYm0212oW7PkHaMzjWA9OBExAyHLEeqA6xT7jT7nmfCFJOn7JU85CkOLIAlFS0ba+CuH8I8hOka52ruZZ+iObXpnWzrM9VazlGHqpPvew8RfU47stNCKKH9FDQccKinUFousscQg0AoGHvrozxZ5tY08IhxCZL0DczyF7uH+uVh/oedsDf6ASMjCLjsXgpSA9tYbQNt4+akxC9Od5w2WxmnG4wS4Cc5qyaZ/dsK2itKAP2usZZHwGqoXwpDWVhxmVtFLAYxzyWzLwqyCCLOFd+bTWJaAqcG7qGwcvsptCK7Ng88GqjnliMO246ak5CfJFfozmD/bE0lABp791TAHM5gLZ6tZGP7W42RUg4gZJeQ2ECDUvxXAyxObNMkM26WZZZFXkpio1zNS69LOJuUbOexorVbrxbsUV7tkcMF8wHpm6sf1NzcWQnCrjQyjXej32imkd8EchcTMAaxa3GmpqLIg3OfXp2j4nGkVmz3o0H2qZehfo+FMfDEwT9g/Urx7jWK421y3CeG7012sRVHmAeAQAoSF8Glqy5wqdesbOCh9V6GSuLQObs4bnMCaLvMHrE9tKAMTDQ+Cyr7Z8/VX5gGOqyI51mH08e7Z774G1j+htvGw8ClfCnxuo3Csa3ftBevQJx/4YxNTBl3Ljf7KBtY3nAbCPDsOvqboMH5SljYGDZ2GZ/GTdeHDAGlrab5OM8ZntpwBh48YZvmzjT58vvbmPXMe6yeP4Wpe+qsys/u+6t/vZtC78+xLeRoAw+be8sH5+GuK7evMz6u9vfVVY21lq1L5ee59gDwF9jdz2EsHZz9onmfa+rfSLQ9e6sTzjqJrxmzerr0ydc7eeup3d8mmXh0hH1D99+4KpboL4VYB7xHyOienm/E44DgnjEOf4uVzemxS7Ix14EX80zk777XIcFxOfc936EL7jeFOFBewcvnV/DxfcOs+LB1ps5rXgZjLqsHaHIMIAd7InSqu9DsV181sd0BwJgVlFAPncGB1llyAdF6JtAvNPFz/U97EBgpQ1HMHzwVM2096EI2g/hQciCwy0XEVvbyQJX+CAMh5tuKA3lgOsH9+4p3nWjQwILUYtgoaC43Wa+EZN29HkFmcXgUeXOwIFxbAx16EY7Rn3CrttmBnCvYWs51kI4c0423fBtunMd/SOOnWLNG/zh6h979xRgYdRrUQ8Pete6eo4LIXIajfWBLetmt5DTauhLDBeKMpSbt80+peH2TeXA8xBBPKz0bGPh2Byb6LMAsFDpMOJQRV5q5kLJoMK5+9RbWWCh4pqEVOTHsshs6v5uv9BzeGPtudbFCXrcQTFvRjt7GjDiM4VVt5CFjEKgCbIZzrZz0kWn9cgscxXevA1tMtH3E7NcrPm4vay+yrVrvYzkUPrgmS1UDjU6kyc0WYI+GeBAs04KcPDyhRNYKm5ASW1BnYv59ME+ZGQWteIOomN5jDrGVrOxZrW9hvJ0FOkhCWnIKOy6g6IETBRQu3LUY6p53dol9Ow45NQGbtcTSOA2NtZljL/a77MGQXSXHlrozG0CurZVgNiyxvam41GxJVhroebiyHLCUs0d51B58wnVN2pSQ/lyFvCsSfNa4tRbWWBiHGdEN4XwIGRkseW7Foo9iTeelI8DAktXdSvQeqnWeNtPu7MRaA2dsywyCrvcza2+314aHJGnZWBx69hEz9oWvKE0hje7Ob474fj1CRbBy631aznW7DPNILAKMlCwcedwRp5vvxJZJT2RumyOtS1mgevWBuEzGJ9g9dfubARbf0sQjxh953Jlb43YC35CdQtZ14SkrSYRv1tAjbvxxObYAuBui7ruRLkCockltjWJx/1iPsGvZ1Dx3EgVpC9xri9zYbavqyJ8BuMTQHbMHTXZyDP2AtsCYZ5vp2rZ/r2pS5dHsEi8bcytILJjfJswy2vHjFxAYYILXgCAehnzqTalmMdlJSqfy2Xle65pqfAEMqjIH8mWNSqucsEHHe/zZ7avfzR3AI5tn4hhlg+yaDnWNJRzza5pBIMTgHKvjbmwCR7ByUqD/FjWez1c41/NMQv0jGWhDjCP+ONXLxbJr9y8iqs3FQqGIAgBfSXolFQU0XszKE1GAM8aDfF6IuZubaz5UHMSoqlhVDiXBBNdjXD547lbvfmkvjnsWZvCIh5F7g0ZhXP7jfU0povZPyKO5cGiJht5bJ3l3DzhBErmxrl2GW5FGr/bNz3vdhLZMa7cZlk6FQGxOStq1Ep7C6NmpFxncPv7WWW+BCx5LMAtMPeka9R9C6OCNCyhHOWjwG1xwm1bEk6gZK1Tk7g0j8TFZu0NefAUHGsPh9KAr+u6jVId1z4xcgEFW+i0GmshJM7ue9bCNdrG3KrI7AedP4jGMGtvUt7IE6L5YqKAGczbx7GoX37+CTCP+NKkXiOjyKxnkV0XrGMkCAKPGYZhHHUhWqMiL61gcJffuoH/m6NeRnJoHzP6LGLm+iXYwsGyZjlPcax/qpeRvAQsHfkalF7A2mPjXOc30UeGat4MeuhMyBAPEY9Qn1BzEvNuHMn8SPMVQTSjZ0ERncEsAf5/c4QTKOn8cTr3I3tyTDTLKpxA6UonZe0n9rC/DgxfpMkxKNreDoBhRB7yGzcRHOoTPaJOwRAE0Yy+crkS3UVbXfGsLyQsNJSnXWt+qnlEO13jRfQx1CeOEvVawM3ICeIRpU8sdEQ3YbvdA3BHXxIcISSuzLC3m3DfdmPdH9GvUJ84CtibPxRzOxaarQjCjz5ZQ0cQBEEQBEH4QS5XgiAIgiCIPocEHUEQBEEQRJ9Dgo4gCIIgCKLPIUFHEARBEATR55CgIwiCIAiC6HNo25JD4n3tI+S+9328+cfv4VToBL7065/B3O9+EadCJ466aARBEARBPGTQtiWHwPvaR4i9fB2nQifwlX/5DE49dQK5730fALD2+zKJOoI4LHYUnPxmHUAYypqMEbyL18/fxmvmz+e+eh5vfPlJ7rgTuPyd53GeXj5AEESfQxa6QyD3ve/jVOgE1O88b3/3pV//DL628qf42sqfYu3323q9O0EQ7RA/gw9SnwMAVIt/icHvpPBBCADexevn1/D6r6Xw9WEZH6y9i9fP/+WRFpUgCKJbPFJr6KrFIl7fOfx8/uyv/hZzv/tFx3enQifwpc9/Bu9rH/mep+Yk5KuHXTqCeHQYSfHWt8/ht+LA7v0Pj7JIBEEQh0J/CLodBSeL7zb+1t7BS+eLOOn7uY41zZuGXAnjt4Zbn//SW9aE/yHWXnGKwGqx8Xu1KD73fe0jvP9Tr3A79dQJf0FXzSO+aL5XtV5GUpIg+XySq43KaatJx9/sfZMPozBU2SuXcmrX0rLbqJqHJB2nNmPXUJouw92NHbRdbjNduw272aYt8mxVl57wLt6uAEO/9uRRF6RjtNWko0211SQkyfWe2X6img9Q/l70V4LoX/rD5TosQ/mLIk4WwVwpoefwxtpzwc/X3sFL3/wIl7/zPEaA9s9vgr0mB4D21nUsAPjSr4fx5p+8h7mvOK10b956D1/5V894E6mXkRzbQWG3xN6rGk6gpCcC5R+aXML4dBTSvQr0uc7ec2i/M9GBjMJu6XBfiF0vIzmUhjPnHuTbC8y6DdP7Po+YD7H2ym28Fj+DD4Z7m7NoXMnFGkqTj8DCvWoe0ljW+d1C53NVr/Bcu4kCalcSeASuHNGH9IeFDsBI6jwu//h2+y5T7R289PI+zrW98Jmtt7n4HvDaNxsWOLkC3PzumtNi6OLbM/8CABB7+Tre/OP3kHvz+4i9fB1/9leCx896GcmhDYwfWLyEkLhSQ+Huivl0u4f99YOkY5FBRdehm5/KgoL0UPee/JklIQ/RM3Zms1m+Mczq+uHcCEZmoevHSXCFkLiiQ+dvHCILRsfl7nabui2AgLAuvUZ7By+dX8PNM+fttXW9gVmUoqlhx5jS9QqGU9GuWi1DkyXo+nF6ADL7wtgOCrt83Wso3I37zgHN6f4c4D8fmdfu5jhq/LV7FZjvgbW52TxJEH70h4UOAPAkzr+WavOcD7GW58TcjoKTf/HfBJzUP4evrz2JwVfWsP98Cl83n+qrxSL+4LPMKlct3haeeSp0Amu/LyP3ve/jayu37G1LTj31DHJvfh+nnjphWu80lC9xYq6ah3Rr9AATVgiJKyXubxmDXZrYYy8UIC+msc8CB3vGUeVLPGTsKDj5TUBZS6HXel3NxZEVWnRimNUrgBRHNBfpG2tVO2ir80ivZ1DRZ+GsHXsAxXQU8enBY2rt0lCejiMrsiSGEyhdOZpSEUQrjr+Fjl/v9so70Fqun7M+Cqp4Eudfsyxz7+L1b36Ey/+2/Sd0t4WO5+Z31+zfvvDdxvq4U6ET+PbMWXywloL6nefx7ZmzmPvKFzH3lS8i9+b3TWsdE2LsqVpFfmwHhReCT+5qTrTGLo4sFKSHfNbgdXENmp2m+4nVXNvFPpZViT2xM/dFFnFJCvAEygtTt/Wn8Td7mrXy86bp/F2w5sxcs2h/b/9t5tGk7ZzXIIlytYxk07VAwcqt5hrtquYk021lXVczfXe5AVfbt7rezjZ1t5MoDfcx9vrNehlJKYr0OoDFuOM8vi6+5XRftzaugT8fYu16Ha/8ntyWmBOWt13qZawsApmLfoIlhgtFGVjcsutt5atabexe68iNtz13ci4Lrl0H4Vhs4Hs92a92/7D6eXJV820fNWeVWcXVlAK5eAHi2SyExMUMsL6B255x4qqr43qLLMABxjdEfajJfFS9ysRoK6Ft91GrzFz7uvq3s129v7vnNf95ssXc2xYq8v287pLwYvSMbWN5YMAYGBgwBpa22z/9BxvGp7/xtvHA8WXN+NbvFIxv/aDVyT81Vr9RMKZv/tQ+59MtPixNdh6fvlqw0nH+3zAM48HNa46//fhP/+dfG/sP/o775oFx48UBY6r8wHC0U5PPsuqT+P0bxtTAlHHjvven7SUrDzEPylPGwMCy0bg6rFwDL95otPv9G8aUI3/XMaLfy1yKnjyapOnoJ+7vzL8H+DqZbbfkzo9vj8Z5dn7u/M2/Heepy552314acNXFunbceX51a1Hu7SVXu6vLrnqI0t42lvk2M39v5OPThj7j0XOt7t8wlvn+42kTcXruunivieC7gNfAww82jE8XauYfPmPd8fs1Y9U1JDxtfxBE18uNa6yy/uQeo96+YbVDs/5hpeW51q6xHOh6utu8VV/09EsRrF72MVadXP1tSlSHluNEMJYd7XfDLrtoPgp8/e0+6jxfNG6m3OO96Thtc57soK+yfFrcU4i+oWeCzp5gDtp5RIKO/+7B28a0R/Ax1ELB+LRg4m7ACz7v9+4bQqeCzg1rm2aTPy/4mvOgPOUzwFunwQ9uv+u0vSQQAPwE3+JG1myicubtOiagGHGmz24anjr7CDjfv0X5+d203PUPJFa97XIwQefFeb3aEHRBxJOnTwURdD7XJFD7NheghmG4BF0rxIKuK6jLgj7swlVH7wOCz3gxWvcPoShpKTJ9rqdnPvFeQ8e80+Sh0jcNn/7mrL+oj7jzcR7TSpz5CrogRgeBEPMIVT7NJuVw5xm4XEEeHILAz8EHMbgQx4Lj73L1xXShzj7HXBqh57B4Zh9fcAUrVItFyD8+gXMd5PTK76XwwRr7KPFOyuxFzUmI35XRna2GTVfHuTOAZzsTxnCk1YoVKyiihsIEkL3Mm/Q17N1Fw6VmffgotpFRZCzXYJvuXT4oQt8E4iJXRTvU97ADGePPuuocjqDjQMf6PhSY28w40h7s0rU8IK4tb+KLAO7utemWUZEfywILFW/AhcNVxFysyj2PA7BJ+XyuCUKInD5IWQVUbptLLpqwo+Ak9waJw2EHey3dWa71rhODiHB/7t1TgIVRj+sy8nSXelmQ63k64lkDeKEoQ7l527xWGm7fZPNO4ziFrX9tgXM+8o6nUGQYvu1Y34fiWV5iuv3Ncu3dhatc3cdRh/oedgBkx5zLFuKL7rK3O04DzL2is9zLKPxctOEESmbATmYxfky2GSLapWeCLjZXQcb6Q3SjaBPtrb/E7lf/tSNyNfTlf+2MhNXewR/8+PP44Wu/gaHOshPwIfZ/7L+GLhD1MlbuFlC7MtO5wACgra4giwxmJkMITZYwc4+PpGs3+jWExJUKMutpzLtElVyscVFr1sdaC2hGom1mPGup2mJkFpUFcDcNohXaahLSUBrgrk9lof107MX8rjVE1lq+hvBmov9YMSybD18t1s3Zxx3Sa7/Cg5BbiBrtzgYUDCNyREE/nVzP0LPjkK01cPXb2FjnRLr5wLSz12TkVreQ7UrwVsYVQWx+Ogg0iTztXNvYPrIrstf8mAEgnYzT5nOvFxb97C2DB1tgmsEgxzJYhWhFDy105o2+G2Hn2jtY+O5HDjHFPtY2I+bTeeg5vPHacwfrmOZWB37blrz01l9j/z2n9e6HX23zHa3hBErdGjjVPKIpBZnNRlRZbE5H5TQvyNqdQM0n8dS8uXCWWVECiSxzS41asdPJsVMEN9XqFpo/1wbFazlgN+mjgFlJsFDh9jczn+rboZpHfFFG4VV3v1SxtchuKI2HsQNskROOYBgKNu64e1BvrCk9I5zAzILbws3TKnCAw2O5Ma91R3R4PcNnMD7BrqN2ZwPKwgwnKqx546rPuNdQvpwFHOcAovGk3soCE+M4I5q3woOQkcWWrym2jfmKP+vZccjIYuUg3gHf/m1x0HF6sLq0wrbgmXtlduX+TBwZfeJyZdFqeO9n2AdQ/c8/wk2wTX0tMcV/lHgdb3f6iq/Qc3hjLYUP1s7gFYShWO7W+Bl8sJbCG7/2M7wG880TR425eWdGsHltbE5nE0d9DzsHsAaEJpdQmFCQvsRuTLGzGcBttauXkbSscNV80zcXNHWhuOoUbxolGADrpjrGR3KZ7sROGbnA2mWIi0CrlzHv2Zi5S7S0+HhdlmzriHYyYW0jF5cET/wRDE443XFqLu4SxkHcpu6HBL6szLp81HQlyhWmV2I9jagn8lpFXmJW0KUW9Y29UIC8nkbUEWnc7nUVEeR6NoNFqio3r+LqTQWZs67NSSaXUJjIIu6JotRQno76RJE25hkA9hzgK/LDZzA+AWTH3BHijTyt9nPMV9Wy/btwPgonUNrMQElFvd6FehnJpn0jhtEFCPp30pwXg41TUblazr1to+JqCrY18fjsw0kclD4QdOYGv/g8lK9+BPl8EW//JhNu1hsa3IykGvvGdYS5zgbmtgcjqRQU3MbJ4jtYu17Hua/+dz3f28oN7zZpNiC1OxtQXOtzgmFtMWBOJCOz0HcLQCraWJdxCViyJueRCxi83FizwTZV5faisoWQd6sKx7qTAHUKQmzO2qTYSnsLozrn/j8w5obOE9bWAmY77BYOZw2dLU7F208AvIBg5ZnHUhsuV3PvLYDdyDzrbkJIvFqAzK3h2TrrddHZAqSJqz00WYK+OexY+8Q2cHXvWdbvMK9ErbjT6COmWwubATdbDidQ2nW2+zyWmOW7I4Jdz6aMjCKznkV2XbCW1NpQ2nWdJSmKjXM16MJrLaNwbt/uv9Yc4P9GDZZHZSHraN+ts5wL0mw/x3x1K9L43W8+GpnlNkHmyn8JWGpx3WJzOmpFOOo9jyV7Lgs0TkXlajX3tk0Ms8dqM2qiUx4zDMM46kI0RXsXr/9nHS+kTNep9g5eeplZ6JpzApe/w+1Bd/4vMeh4W8S7eN2xKJo/3srH5w0Tjg2KP8TaK8w160kjMCry0goGHW+LMJ/i7WPcr8Iyn3QhfhWN93VDD8mrtI471by5O9ScvHEAACAASURBVD61NfGww+agjXO9eo1Zr/MjiP7i+As6gugjmJAeFuyQTxAPGR2/trBd2EMu6L3IBCGkD1yuBHEc0VCedrk+zcCUQAvdCaLPUa+lXcEQh4sVxe917xIEAZCFjiA6wO0WR1fW/RHEccZeziF8T233UXPWPm60bIQgmkGCjiAIgiAIos8hlytBEARBEESfQ4KOIAiCIAiizyFBRxAEQRAE0eeQoCMIgiAIguhzSNARBEEQBEH0OSToCIIgCIIg+hwSdARBEARBEH0OCTriWKKtJn1fQk8QBEEQhJO+E3TsRi81PtNlaEdSEhV5vhxHVB5Pe0gSJCkPtYdlIAiCIAjiaOkjQccEVPTmOGq6Dt36vArMH5moA+RirVEWXUft3AaikoTkarslYvVr/zwAyKDClaGykEW8j0QdE6XO8oYmS9B1es0PQRAEQQShTwSdhvJ0HNmFCnT3uwPDCZR68D7BoIQmS9B3C0Aqinz1aMoQm6sggyxWDiQOCYIgCILoN/pD0FWvIr2eQWUuFuBgDeVppwvSbfVSc6ZrtJp3HGcLsHoZSf5v8N8HWNcVTmBmAche5i2H7nJx6VTzkMyXvCupqKvMbtfuASxv1TzLr8rqxafR0oVtnVt3lSMnKIWrPR3tbreplU4S5Tprk2hKAZBFnC+bnS+fgasMwrIK2pcgCIIgHnL6QtCpt7LAxCAirY9EXooifbrCuUErGE5FvQJkPY3ordGGq7QoIztmirjwGYxPANlbznPUa2koE+M4E8ANGDubAdb3sWf+ra1eBV7l3aIK0kOmeBmZha5XkEHDhVuaZDZHNbeFUbsuNRQmsoi3cjHX97ADYDjC2y0VpC8DS7oOXZ9FDEzYRlPDTnft6TSiHtGoID3ElWO3AHkx7mhTbTUJaQyNtEwrpVtMZ8esdEpIhENIXGFt33Abs7J561RGUooDm1xbII2o1Rb1MpJjWWTs35eAO/3idCYIgiCIzugLQQcAOB1p6VbVVleQhduSF8PsZgZYXHFZbJzHhSaXULBFXAhnzsnA4hYnbFRsLQKZi+24d3ewV7fSn3WsB4u9UIDM/e5HbI4XOCEkLjqFohcN5UtpKBMFXBhx/uIoe72MlUUgs+kUUH7uWsdx4QSWinz7qLiaUjzHzCwAys3bDvEpFy+IBVsL1GtpKAsVzNp1stpiA7frAOr7UCBjMMz9PnmQnAiCIAii/+gfQReAvXsKsDDqFQzhQchQsM+LJ89xIUROA7i7Bw1AaHIGGWSxZbldq1vIIoNRl0hqzjAinIhTc5y7cCgNxV0mIS5X7VgW8AhBy10pQbIslJ51hbzYgSmARPWJYHACUO7xktF7XCgy3CiHaRHMjjld3fFFQYtEDrLaUcPeXQCLcad7eCzbOGRkFBkoSA/5uIMJgiAI4iGmLwRd5Gm3tawXxDC60HC7qreyYrHog9NNzNZ+xRczDpek3CqRehlJKYo0Co3I3s2M4EBnlKseaK1ht5FR2NUdEb+6rguEZQc5uCKKddt1CwAxzFrtYwk/EnYEQRDEI0JfCLrQs+OQA0Rt+go/kTXKtMQ1YC5V+dwZW4DEzmbM9FRsLcoovBBQKFXziPPu2eoWspBR2OVckvV9KC2S0e5sQEEGFU4UaXs7wcrQivAgZN4CabOH/XUgc5avq9c1zASruZ4wHMEwFGzcOayoWmY9dbtvhYzM2msie/8QQBAEQRBHQ18IOoQTKG1mWASo2+pSLyNpLoy33KRxxzEq8mNZ79qt9TTmOYGo5uLIIoOZSc6eNHIBhYkstnJbyAYMhmDBAWxxvr3ey+PyZWVy4nV1OtyaZl3nU61kYECsSNwxZwCEmosj61l/pyB9iQvEcAtW05qppOYd6xS11WSgrVs89RTAgkyc1wz1MpLWta7mj2ybGIIgCII4coy+4oFx48UBY2CA+7x4w3jQ4phl1ZnK9hI7b7s8xR23bGyLcjSPmSo/cP2ybSwPuMoiLI8zHTuv+zeMKXfZ1GX7GCu/7SVX2uqyMTAwZdy4z6crLrsz3cY5/uUaMAaWtsXnqqy8fm0qSsvRZqL6Ns7krplZF1GZ7zvL4Gxr93Vv0SYEQRAE8RDxmGEYxlGLyl6j5iTE7xZQC7K+q5o3t+Pw2U7jYaeahzS2g8IuvbWBIAiCII4r/eFyPULaDYYgCIIgCILoNZ866gIca+plrCzKKOySnCMIgiAI4vhCFjoh5iumhtIY3iRXI0EQBEEQx5tHcg0dQRAEQRDEwwRZ6AiCIAiCIPocEnQEQRAEQRB9Dgk6giAIgiCIPocEHUEQBEEQRJ9Dgo4gCIIgCKLPIUFHEARBEATR55CgIwiCIPqbah6SlES5ftQFIYijoz8EXb2MZE51fKXmJOSr7gNV5KU8VPfXArTVJKTpMrQWxyRXmx0BcyKR7E/L49ulXkayaboaytOituj02OaoudZlatW+R4W2moQk6E/u7wRnojzN9y9WT087VPOCupubVQf+OG9Ozdq7+bUgiIcdDeXLWQAK0kPtja3GXKAi30IQuseZtppsYzy75pd6GUm/e1Wz3zrBda+SJHYvUHN+ZebKIJjT+Hk00L3SnAMb9x/+fuTX/uJ5M18V18dTZs+c7jcPi9u7eb2C6w1Ruq3yPgj9IehwBuOIOzpU7IUCdsb4DqChPB3HTvFCoPeu7t1TgNMRhJocE5qcwXAqancKYce/PIiarkM3P6XJZim2i4bypTRQLDjK4SvMTPHn7PimuJIkSFIU6XUgOyaaZPjjuM8BRJmaY/lgPY1os0nt2KBia1FG4YVWPSeExEUgbrdJCIkrNYzfjNrXQltNQhoDKlcSgr6VQYXrK/6fCjKtilzNd3UisMsuSlM0cfbqOgr6tD2hP8yY9XbX05qDelF/3/5wzFBzUaRPVwKMK+tjvf1Hw+2bCjJn/ce96OGPRy7WAuVZK8otauHzcNhtJgrm/aqGwkTja289XHPQyCwqp9OIcveL2zcVyE9HAJj301ZUt5CdKODCiOC3egQXNoeRHhL1bRmFXatcznI36qND3y2Ab2UtPIrC3bigD7vnYf/51tYAgvugmosjuzCIiFuE+sxZ/Cd6b4bLf7Z774o3+oYHxo0XB4xllfumPGUMLG0bhmEY20sD9v+DsL00YEyVHwQ50lgemDJu3BeUiMv/MHDWidV/YGDZ2Ha0hbdd7LK9eMNw1tB5bKvyN/td3H7isthpDSwbh9darWFlGHB+lrYNQ132fs9/XO24vSSuo2EYxgN12xD3qm1juVkeno+zz20vse+tNufbP3hfboK67Ntf3GVx9sVD5v4NY2rA1d7m9fK7BseNA/V9Qb1ZOuK56LA47DmuU9g8N2VMBR1XfF3MNvY7dln13mP4cSacT9rO2+wX928YU6L/dxPHGG/M1eL5Y9tY9pThgXHjRbP/tZozPeNTdG9g3znyVpddY0U8by6rfmUQlZnLQ9i2orq6fxeMRc986YNVzh6Moz4SdBwtO1OrwWB2kg4b+DAnu+0lr5Bo5HmjuaDjBkXQSYcNbOfN4kF5ypgqP2iZxrJqtJwcWw/43iEUyq7raNWd/7utydszibeaNHwwJ6Blc9LdXhowlsut27o9gSd+aGkuRMx2CzqpHRSRoDP8x8dxpCuC7shErP8D7ZFz/4Yx9eIN40HAseWer51CpskYaCLoDvIgtb00YEwtLTNhYdbhxlKruaQLAk9w37QEXXt5eoVYy4dKH5Ha+mHUfV24+537IdSRR5Pr6Zk3RP2n3Qdwb93se4ZQI5jpd3kO619B59cQQZ5u3E9HAQh+Q/eKonYHY+ubVRMLnecJx+88gSB1tJ2/tc0qo+Op58VlY1l0vLA8zdNuRWdC2iXm1WU2uQqscP4TjeDJsmW5zEkjwJMtP0FYE9ANl0XO/8bUPuJys3Zqmq663Ojv/P/5dEXfmW1t93NHm7gm4SCCzj7GmoS5NDzt7eqL9rmW1dH8iMafKy1H2wjL4ErTyl/QVo30eSuN82FJPF7ceTTq5zePOPqP60FMlEe73o/26Ww+aOvmyz3IPVAfcG1zUEG3LbjGzR6yTGtP2W2R4/I+bAud6/4Z3ELnT5D5UnRf2l4aMKZeFN1bm+fN5ye8x95/YGyb92yndU70cOIcQ836YbB7j2jc+8zx9x/0q6DjBl07kwM3idoXpkNBx98kfS8eP3n7lDfIxW1b0HEWGf9JwU/QeTuS50blO8G568RNcII29Q7goJ042MBpDteX2n3Csa7ri1Pmk/GUceO+e/JqdoNxW/ScNwL/m5//BNnMhbvNWeamyg8CXot28KlrUxFh58y5IrxuCbeb2F1W2zLgtpZ6nrrFrhqvKHG2i6+g9Nw83ULS+/TsGcfmec6bhfhG5J0DRGJZXCdLIIqvr/c31qZmXiLh6GhPwfllHyF72NZQ0TwfmANY6AJ5FJaNGwex0NmWQwHW+OXGsWf8Hpags2hX0PFtFWSJiluU2cdb9XYf52cBbv+e4knPekgKNJ+1phNjQsMSenjXtmeCzm3WbbdhHYOnI5crZ10JMFE1u4CH7XJ1D7LGd63X0DVbs9C87c32eXHKM+jbswp1x63dika/CuIWYmtAlpe4dTfcZG23i9+EavY7Z729T/Ziy0hjggxi7fW/9uI2OLig83Gp+T7Nus/1sxyydJeXplzfNdpZ2E5uERJkLZlbXAnKxp0tFE6e4xzl8IpVT/n90jFEgk5Qd6GVpvl8JnQftRBsjnOC3uQOW2A4OMjD2kEsdKI0DupyDZK/yDLs06aH1N52XQSCLkiZ219TbRh2u6pN5tQ2HhasubPhKj7+a0ob832j/gd117eiT6JcBUwUUNvM2FEulQUzUscV6eKhehXp9QxmJkPAyAUUkMbVwBFjzkjQaEoBFuOHEn7sx3CkWRQtH/q9h/11GYNhPkxbEOXqKXMIiVcLwLoC+dwZO1IzNldBZnGl9T5PdkTkFkZ1HbWnVzwRQmquVfSsN+LWL/orNmdFkcEnQopLdXUe6dMzuPA0gNMzKOkVZBa3oAKInc0ge5mVSb2WhrIw6og8UnONiOZS5CpXtjiyru0Sts7q0F8F5vko4foedvjCLDSi8ioLQGZTd/zdDPd2CfFFQElFfbc8aUp9DzsYRiQs+lHBfoB0rD4ZO5sBzPZkEW3juHB2uPFdfQ87yGBUFOXWAr7PRlPDqNiRit5yNOolY/xZ93gJIXIawN09rv8JjgsPQrbqb14757hh7e7XFq2IvVCAvL6B29b2GXc2oEyM44yrTpnNGgoTWS6yusHePcUbST6URiPeMIYLRRnKzdvmuWZkojWuw2cwPmHWq9l4DEcwjB3sdbLHmydS2m+ujGHWimZEGtFAcyo7p7IAZ9Sj6DPHjWpHNKJ3HLeKJHZGdnKRmLsFyE2iL724ttIYSkNBFvHDjCo3+401r8rFWuMeGjTS3qJexoo5B3nm6foeUFzyjFWb8KBjHLjTdUeLzmMJuq5jdsSa+5eAS/7b0ji2gBFucyLa0cFnxwfhPd+/T1vzdCOitRHNGposYeaeOHq2Ez7VxbSawgRBHFkAWKhg9gCTus3ILPQrAKp572/hBEq634kq8mNZyMWa2bAhJC5mIF0u44JwmwkxmU3dW/56Gcmh/YApHAQVW4sAzjY7JobRBQUrdzQkIuyGWgvHENJ1zAJgHTWK/YuC8vPU99lN4eZtaJNWu8RwoQjM39GQcG/NUi8jad1ITKFiTVLxhQoqp+OISmn78MymDv0FrUlHDiFxRUeiWVVN1Jx1Y2UTqu/EAWDvHtjWJHesb2KY1c0hNnIBBUQxn9sHFmUUdp2B5LE5HXa3GpmFrs9aJUBeWsHgrltgJFDSXTWYGETE+v9iHBIvCBYlNjZM5KJ/PUKTJeiTjb/VnISVp2vd3TInHMEwgJ09DRjxSbe6hSxkFKx6hwchYwN7dSCytwP53AWERvaQQRxb1VlE9jagLMygdIDiCMdcT5FR8FzjDgifwfhEGht3NCQmYQqtJcEcFELiSgX7UhzRaaDmnqcWKk6R4j772XHIqQ3crieQwG1srMsYf9VKwRxn5viNSmkmiNqYCwPjGDPNUJGXzPvERAE1PVhZGvNA2jHXePDUL4OKPouYYxyb82SAfJmA34O1Bx6fs+IoRwYzvqkwQWq3jnkvmenmdhZuuHZQc2YpXigAQ1ehTs4ihggGJ+KITw827w9m3xne1FEaYe0m3eTaOJzA7CQAv4cBcxzs1wG4x1Y4gZIeafQHmA+uKXM+QB7SWNZ1knU9Gdodbs4ZmUVlIYs43GOG9TlctOrpc/+x7nMtx4jqKLNnrneQRlTa6Nrc0kMLnfXkpTedgFrCbTKs3so6rEgNRJsUsn3qsgsV543Ps7/O8aKx913cfw8fjtgLBSB1FXmzbeCw5ogsdO6nP0v0FpBZd1ovQ5MlsWgIJ1Cy9lt6esVhodPnwIQoMqjoFWQsC0041MFNo/FEG79rPQm3HhCxuWbHMHGvLGabP1EeEO3OBhRz38PQZMlhNXBb6Lq/n2ErRNYX07qTuupjITE3c12YabRV+AzGJxRs3FFx+yZMq1cMowtMGO7da77nV1cJRzAMBRt33I8NGvbuwjVveC2R2p0NKHZf9UurE0I4c860ntVvY8PyGgiJYXa3AHndOU9FnpYb1k8/7Gui2Tc3T9+2xu9mBhBZS5pacbuEbT2JY8eyEgUSluaDIyrmHmWivR6tvcsyPvtDHgS2d+VgGHDc20QWum7vNXZYhBNYKu6YlsF54NXm10BbTUIyxRx72GJCqHI6qGWVnXPmnGx7R8yUXfusHmwfOtE+g7G5Gtubzh5HTHztFGstHhitPWFrqJ3baKEXXP3B+nAeRecehUD6Wnf0R9+4XPfuKUydXwKW5mJANY/4osilYsFPQOzJIY0CagIx6b3IXtgGk7fbLnenm3NaLkU2wZ3B7WkJyVUgccXHYmEOyuwiu0E4xQMbDG7xwAtstlliBaXJBGY3M8iOBSl7Q2BZJnFdv4C9aUvY1VCY2MFePYYLxR2h+6gdtNUVZC2XZbcm6HoZybEs5AlZ7Drw3WHc66rxmuC5iUVg9o8vCkR2rzbPNW/4ItdqaHKJufuED0dRpNczqDjGkyVSVrCBhvswdjYD5eY8VuwbYC+wBOm8o+za6nxjyQWHo5/Xy5hPKZDtTcqZKPWmlQx0jUKRYYhEc2hyBpn1DVy9tuFx8XsIJ1DazACLcbtvhp4dh4ws4u4HMsf4Mh9Ubl7FVfcmuvUy8kE2sq3vQ+Gty12HPRxY81Lgh5l6GUkpDmxac1gIiSuj2LLGz6rlsjPFyQFEVWiyJDZAmEsKzoQF7rmhNBTRpupddK8FedNRU6zyud5eMZ8C5Ak4H9QEqDkJ0ZvjqOne+1BsTketuOPql/6wccAbD6zlQu1USIC5vMq5xMMUnYjb8zc2W/U5FXmJbV5dMu+poqVEHuplJH2Wv/DXz7ePHYSur8o7FJyL+a1FnO6IOvHmgUH3e7EWtooi5azzW0XdBIlwC4Z/5JF4k1fngv4gi4C9+C3e9tvKwH8BuGuxqmvBd1ubMh4CzoWtos1z/TbUFRFgny5+OwrBImC7je3oOG/wyuEFRQTYlkIQhOSbX5MABVG9DxIU4Zen8Bh32X2DCJwL25v3bcExgbcWEQRHiM7zSc+7t5V7Qb5orhHPbXz+zQKLDn/bkm7RaIup8gNju3zD3rrCv41d+5aVl33agt+qyPt/R9pclKs9tpvumdasXD41bXfMuyNVXfVy9x1HtLTh6vsH6Qut6sTvs+hoq4NvLCzut6J7uN/8LdgGyVMnkbbwuX9w9Xpw/4FgLHfOkQi6T37+c+MX//G68ffL3zb+/tv/m/H3/+sfGP9wuWj8Q+G7xj/8h//d+IcrJeMXpavGL/7jdeMX1940fvFm2fjFjTXjv6ytG3f/p5PGv3vqovGjtzaN/7L5R8Yv/+iPjV/+8S3jl//h68a5J0NG/MmQ8W+eChn//ez/YfzjH33L+J+ffMpY+Pbbxj/V3jX+6b3/2/inv/mx8U/3/h/j4/33jY9/ct/4+G8/MD7WNOOTD3Xjk5/9v0Y1KxmfHbhgrP74Hwzjl/eN8v84YCRvfGCWvEmUaLcjk/wieZe2DW+n9NnPqI2w7+U/bFX+JjcObrJw7g3U5AZ5hLv924KuSWQiI0ikbmtB5xDF9qBuHRknFHRBtwxoRzD3NIrxmNGl7QwOSm8ebsT7JgbjGG8sbBiu8dBaBPmKO796itJ3bEvSuCe0jF4XCro25mi7zNwbGzpGHMHdqPuUceP/EhhIAn3a3FtPuHVNJxsLe41AYnHGXwNrG6tmQs+v3I3tUZzlb/ag2N0N2h8zDMPojq0voEXw5z/Hz3/73+KT93/Sy2w754kngMcfx2NPPAE88TjwuPnvE0/gMe7/3mPY/53HmN996lPA4483P8ZME1ya7jI4jjHTFB/TbjnN+n3qidZ1cZXzMe54zzGPPw489thRX1GCQ1tNsmisbpn++wVuUXfvgy6Y63rjXJcDWtzUy0gObWD8AAuvH9l+cZzpRdAE0Zf0LMrV4pcbf9h/Yg4APv4Y+PhjGP/4j56feqqIHxZIIB8rgRyaXEJhOgpp+pCiHAkv5hqfypXDbW22DU8FpYOIudQwKjrJhmNF050ciEeZngs6ggBAArnbdEEg/5snzuLeE98Dzq/i7x4Vgfz//QL/DI/hiV/+AvjHHlmQ7W1+2FYohyWXmCBTzC0q2s/FvT0OQRDHm967XP/u7/Dz+ER/WukIgng0IAvysbIgEwTRmp4LOoCto/vlxh/ikw8+AD75BMbHHwMffwJ88rFpufkExifmdx9/zB3D/i88xrL4NDvG/L/zmI8FZeDy+/jjXjcPQRDEwwUJZBLIxKFzJIKu7/jkk8DCUygqOTGJj/9JICqtdASisoXwtPPzPYYEMkEQxEMFCWQSyAJI0BG9hwQyCWSCIIjjQh8I5Mc/8xn8yvhv47Ff/VXfapCgI4h+hwQyCWSCIB56Hj/1WfxqZR2P/fN/LvydolwJot8x3QaPfco7nB8OR0KPIYFMApkgjiGfvP8T/HLjLfyzf/c/CH8nQUcQBMFDArm7kEAmgUx0jyY+VRJ0BEEQxOFBArm7kEB+ZAXy46c+i18Z/23f33u0ho694mb/oo4Le2yzy8ymjlnkIV0eRO1KArA2wVyoiF8zU81DGttBwXx9jZqTEF/0yW7Cuds9O1a2zwW4TTcFZOzXALFyp9czqNivWbG+c6ZHEARBEESf0ScC+fHQU/iV8S/7rp8DemWhq9/GxjqgoIzRc9aXGsqXs8C6jNv1BCL3mLjKnBXtaG4eCyB9TUWCE3wZ/h2M9g7sHNW8KfwUpIckpAHIxRpKkyXoz5rHmyKyqUi007uK9DqAiXGcITFHEARBEP3LQ2RBfrwnuYQTWCrKkE9HGt/t7WEfgFxcQiKsYssUUtkxCZJkfqbL0ABbEMrFGiqIQ5KSWLkbIN9qHtJYlln9dB2VBQCQMf4ss91pdzbgtdHJGPQVag1hifU0ohJXVkmCJCVRrgdpEIIgCIIgiO7REwtdw72p2AIqm4qz/6xfRRk7yKJhbbNdpK8mEIKG8qU0lIkCas/exnwKwMQwhrm0/FBvmeJrMQ7JtrwpSA/lEdkdxIr5nsPKCxEAGvY4kei01mURl7KQJ2Qo6y6roPB4giAIgiCI3tETC11ossRZyBiZTR26rkPXLwA3mTTb2dPQEFbDiITRcHGupxE13amZi7MYPc3ScVj0XO7W2FwFGZiWvQUACxXUijKALOJDaSjIoHIlgcideUhSFOl1y2IIxOZ06LsFyKy0qOg6ls6ZYi5cRpKscQRBEARBHBPaEnTaavKArkUVeYlZ3TILTCI1hBgTUgCg3NsDsIf9dQATg4iAWdkym7opxABMFHCBs441hCEvwFrBBJpuBjpYglPXdZQmQ/ZR6jVLIGYRlyTMY4lZEK+loUBB+praTiMQBEEQBEEcCsEFXb2MeTsqVEH6krm+LQBqLo7sQgW6XsKFp9l3DpEGGfIEgLt70Op72AEgnzuDEJilbHZExdWUAsByw7aHkooyd+hinItsZSJTyqm2UM1XnfVdsV2oGRSKMnBvDxrM9X4TBdTs4Aynu5YgCIIgCKKX9GQNXWxOh47GWjq5WGNr0EZK0CcBtaoCtxQoi/u4fW4HCmQUnm3INm11BVkAWJg50DYhcrGGmXtRxFFB7ekVRFMAqlsszcU4ouZx2THJXMtXw+DlNJSJDDLIIrsORCZLKAFANc+OuZhAqJqHNAZU9AsdtA5BEARBEERnBLfQmZGqjPYsZWqOuVct65iSijbWveVUxEZiiJ3NAMginVKcW4LwlsHFuH2ORbM1dP5kER/LMiub3rAUWu7b2ZEQIqeBzMULGHScZ0a5ThRwYcSKeM0iPn0V+wHbgiAIgiAIotu0ZaELTTKLWrvE5nRU4Nzc17bWPW1uZTIyCibpAJyONMRifb8h0rhNh9Uc+6rpPnSm+1ZJRc3vLGscv1EwhK7jyNMFYATY477TVufN9X5pRCXuh/Ussu00CEEQBEEQRBfpzT509no0BemhJMpV0+o2UcCSFYRgii8AwGK8sZ5tZLYR9CB6g0TTfJkYzGzqrihXYM8O8GhYDm1rX05FaDIBd2575ubH1r527MMiaRlmZC5BEARBEEQP6dnGwiW9hsIEAChIjzErmhX4YFvWFip2pGp2zBlJq3ECLLkaLBxD29uB30bBES6y1e1y9ROOsTnR7zHMWqLOjMwlCIIgCILoJT0JiuA33WWv3QqZb3GIQkqx7zObOkojABBDaRdIDqWRvqYigjjii+w8XS950rMCGRyspxGdBrbOwV6Ptwc0AiAWZjzWt07qZNYAlSvtR+ASBEEQBEF0ymOGYRhHXQiCIAiC+0sLYgAAIABJREFUIAji4PTG5UoQBEEQBEEcGiToCIIgCIIg+hwSdARBEARBEH0OCTqCIAiCIIg+hwQdQRAEQRBEn0OCjiAIgiAIos8hQUcQBEEQBNHnkKAjCIIgCILoc0jQEQRBEARB9Dkk6JqhvYOXzhdx8vx1rHGvj9Xeuo6T5xVUPccV8frOURSUIAiCIIhHGRJ0rXjm8/jh2vM4HwKwo+Dk+SIWfnIC5/hjQs/hjbXzuPzMEZWRIAiCIIhHmk8ddQH6imEZH6yBWeQqPzvq0hAEQRAEQQDoEwudtppEctX0edbLSEoSpFafnGqfa/3fL+1mvxNdoJqHJEnIV1sf2pJ6GUkpiXL9ENImegf1ia6j5iRI02VorQ8lCOIhpC8EXWhyBsOpKBNe4QRKug5d16HvFiAjg4r1N/+Zi7GTn51B4W78oZro1Jx0fG5YQoHN3Vz7GZ+Hh2PR7seZR7BP2A+ch4g17h/KdiUIomP6QtABMczqFWQWV5yTV30fysQgIk3ODIVjSFypoYA05lc1ZpHjJsRoSgEW4z2fnA9MvYyVRRnyBJC9dXwsi5nNhpiuLChID3E3mpFZ6LqO2ZFDyPgw0zbh66ZvZpAda0fUqcgL+hTrh3kcnyvYfR6lPqGkot2bN6p5f6E2UUDN8fBaQiLcnWx7j3hsEARxMPpE0AFM1JWQCGsoT5viaywLrKcR9X1aVpGXkijXQ0hc0VGaDCE0WXJY8mpFGVioOL4rTYaOtKbN0O5sQJkYx9LFDLC4dSwFQeyFAmQo2H8YLQcjs6gsANnLD4/Ftxc83H3iAgoTgHJv76hLQhDEI8zxF3TmepiGUGPijD31A3Kx5hBjlQXu3HoEo0UgPXR0brLuWmI03L6pQD53BqGRUWSQxYr76dZ0CeWr7OnXftK3nvqrlsvIKhMnkN0uHD9LQTUfoE4yBi3LgV0m99+uvAVrGZ1uJkFZupl21bUWKxCt2i+OLAAlFTX78F2Up03LMLKIO64FYFkt7PQcSwXMvHKqXfbkqtZWnYNjPQx1kISHR6VPAN5+4RovLtetVVY1Zz6oQkF6qAsuVW7+9HgfPHMFXxbnd14rWvP62ev5HPm3Ghv0iEQQndBDQcdNEO3caEz3iUOoAQA07N2VMf5sE2taOITYZIm5yR4Gi0r1KtLrVp1jGF0AlJu3hfXKjm1h1OOSUZC+DCzpOnR9FjEA2upV4FW3a8ycnEdGkYGCjTt8DhrKl7PAwihiwkJqKF9KQ1mYaekKyo7NN/LezACLcYfwVnMS4ov8GskZ7I+loQRoqsNLW8PeXQCnIwihVfvNQtcryKDx4FGaPI3EFdMybK//ZNeC3WDjgO3OY0sFou71n4txbJ31WpNb1bk9YrhgPgx1vm7w4e4T2uo80usyCi9YI0JFXopi41yN6xdZxG3RoyI/lAa4h9HRPXaNY3Nm2SCjsNuZS1VbTUIaQ6M+uwVA4BpuzBWsX2bHJEjSCgZ3G98pqXlOWLaqn8l6GtFbo42+PKEgfcnsy8KxcXw9IwTRFxg9YntpwBgYaHyW1fbPnyo/MAx12ZFOs48nj3bPffC2Mf2Nt40HgUr4U2P1GwXjWz9or17tsL00YAy8eKNRHnXZGBiYMm7c5w66f8OYGjDbisese8t2v3/DmOLS9OTp+t3Kz9l+y8a2J00ub/ffhmEYxgPjxosDxsDSdpNjBHXuZdqGYTwoT3nbvEn7Gca2sSy4HiwdZzttL3FlFJbJrAd/PYLWuRP4axwkvUegTzjq5mqTB+Wp5tfILy+/PE3cc+jAgLMvOMcq63fuPBzHiMohnD+cabWsn6csfvUSjw2CIA7G8Xe5ujEtdkE+9qJoy0XoPtfxJOxz7ns/whdcb4rwoL2Dl86v4eJ7h1lxFVuLYO5W6yvTgpa+5rV4DkdET7ucy4tPmXczDaWhcGudYi8UIK9v4Lb5t7WG74wrHecicSDeqQulvg8FGYy6F7aHByEfPNUDpc0sFlYQzTAqLqtJs/YLjmn5cwXoMPebC9M62CnuACHfSHA7sryCzGLwiPGHuU9YdasVZcAVrLV3T/Gu7R3iLH3hMxifMPtVu9H37qCIKwlxX6jvYQfOvitJEuKLLdIPRzAM8fyxs6cFqx9BEEdCzzYWjs2xm0EWABYqHUagqcib6y/EZFCx3FgA1FtZYKHichGqyI9lkdnU/V0aoefwxtpzrYsT9LgO0FZXWH1TUUgp14+LW1DnYj4u0GZY7ci1V72M5FC6cUj4DMYn0ti4oyExCXMN31JzQTEyy1wwN29Dm/S54fQRmU2/iMkA7dcmcrHWM9dTaLIEfTLAgWadFIAFEM2139Metj5hEZosoXJPQvxSGWd4cdW0ndg64ITZrlEpzYSanzg7MDIKu4cUBXvQfkAQxKHRQwtdDLPuPeI6QmxZY3vT8TDLVuasS87l4shywlLNHedFuSwYwh2N26hvFlsHWeNU3UIWMgq7DfHLLBU8IZw5J7O1evXb2FjPYKZna112sOeydGl3NrpkCehC2oHaLyghRE77r4k8CmwL3lAaw5vdHLudcPz6BLNis22RACDytBwsAt2yfG5mAM4K3hXCEQx71r92h8D1Iwiip/Sdy5W9NaKN7QGqW8i6XCnaahLxuwXUuJtTbK6C4W7uJcXl1XGUa/02Nta9ohRAw31zkKCP8KBrKwlmtXQTmpxBZn0DV69tQPENhuCo5hFfBDIXO7A4jFxgi6iHuLarlzGf6sKtu1tpB2q/CAYFW1qEIsNwC4jY2QzACQOrXMkjeZOJiqsp2A9NHe/p9jD3iXACS1zgQOjZccjIIu64birylnu1Xka+2Tzj6VcHwQyacgQzsPmo04j/lvULjHhsEARxMPpK0CmpKKL3ZlCajKAR1u/6uNZyMHdrQ4SoOXMdFOfeYKKrEUJ/3N4EoF5Li9f3ALAsaAd6wjdvRI11NlsY9Vg4AXZzUJBdVMSiEq61OqYruzMREGIbQk9YW3tIkC4BS8LyHVHagdovhMTFjL02zn5gsAUEt+XDyKwdiSjx5ToSq5i17+PBU3iU+kRocoatZ71UhhZOoGStN5S4vmHNOeEERu9x13hsx+kaDScws2C1n2vbkqb7bjqJzemocZHKkiRhHkudi/NW9QuMz9ggCOJAPGYYhnHUhWiNiry0gkF70nP/zVEvIzm0jxl9FjFzjRPsG4mG8nQU6XXnKY51S/UykpeApa6vZ+lvtNUkojfHD2GdzzGimvfeXIlHG+oTBEH0CX0i6IijhQnhjXO9W7B/FGirSTOKdfYAASbEwwj1CYIg+oW+crkSR0T1KtI9DYY4bDSUp12urGoe0ZQCuXiBbtyPJNQnCILob8hCR/hjb1dxiNsfHBnerW86X+NF9DfUJwiC6F9I0BEEQRAEQfQ55HIlCIIgCILoc0jQEQRBEARB9Dkk6AiCIAiCIPocEnQEQRAEQRB9Dgk6giAIgiCIPudTR10AgiAIgiAeHd7XPkLue9/Hm3/8Hk6FTuBLv/4ZzP3uF3EqdOKoi9bX0LYlBEE80lSLRcgVAPEz+CD1OQDv4vXzt/EaACAMZU3GCH/cM5/HD1977uF9BR5BHCLvax8h9vJ1nAqdwFf+5TM49dQJ5L73fQDA2u/LJOo6gAQdQRCPNNViEW//ZgpfHwaAD7H2yp9j8DVOxMESegB2FJy8/l+RoCOIA/K1lVv4s7/6W6jfed7+7n3tI3xt5U8BMFFHHIxHag2dmpOQrz46+RIE0S5P4rwp5gBg5DfDwI91aEdaJoJ4ePizv/pbzP3uFx3fnQqdwJc+/xm8r310RKV6OOgPQVfNQ8qpjb/rZSQlCZLvx/VORjON+GIGoyOtz0+uWtO3hvK0U4ypucbvaq7ZuZ3ky14K7kzLWxaiBdU8JKlLbVYvI8n1K201Ke5nR4aKvCQ5x4mAtstt9lm7DbvZpr4Eq0svqP5FHefO/LdkjSOaor11HS+99aHPr+/i9fNFnHzlHd8Hg2qxiJPn2/lcx5oGZjF2pau9dR0ni+8GKJezfK/vWH9/iLVXrL/fxetWXqI6uT6v75hl8vymwJoy3tc+wvs/9Qq3U0+dIEHXIf0RFDEyi8otCVKuAn0uBoQTKOmJ4OfXy0iO7aCwW2Iv2W73/CbIxRpK5kvrtdUk5ruUb2hyCePTUUj3zDp3gLaaRDQ1jIo++9C8ZJzVSXF+OVFA7Uqi72++D+P16iu0d/DSyz/CTQDnvnoeb3z5yd6XwXqP8nHr0/b7nS0exvc8t0/oy7+BofNreP3XmOveXm/J896P8IXzP7L/9PStOOfaD5yxDOUvivhCUTLP/RBv3/4I586wdPd/8hHw2RZp7PwNXnvm8/jhsOA37Um88Hsn8IWXi9j/PWtZgsUJXP7O8zgfApgIXMO+9RO/zlR7By+9/DP7rC/9ehhv/sl7mPuK00r35q338JV/9UzwuhMe+kPQAYjN1VCYjiJfbfNl2fUykkMbGG970uFe1L0uOV7YDTCh5R6v3cnXIoTElRowPY9yvYREeA/76wAuHiQtN6xuO5wYPVwOK78MJ3pYHtFpNG6AI7PQ9dku5tcgNFmCPnkoSR+QGGZ1HXxtRcKw43J3vU1FfcNbl54Seg5vrD0HwLR2vDLY8zVz6rU0lAkZ8voGbtcTx0IwqTkJ8UUZhV0dJbs8GsrTSZRfPWxR1+s5q10+h69/R8dLLyuorrE1YM0eBrS3rmOhVZIB12uOpM7j8it/hDXtczj/t3+Oi+8BeG8NJ79rHcH/H3jFIcw+xNr1Ol55XvbksXv/Q2D4SYRCMj74PQUnv6ngt9YayxGAj3Dx5aLjlvSK9R+XeAXC+Pfm/7498y9w/n9REHv5OuZ+94t4/6cf4c0/eQ/vax+RoOuQvhF0TODobZ6joXyJE1XVPKRbowEtXjHM6jUMTkexf7EhItWchJWn2aSi5g4jX54QEldK3N8yBo/BxH48ieFCUUY2tY894PhYNIi+JvTl38Ar3/1LvK09Z1oieoGKrUUgs7mEQUSxcUdD4ohFjLaaRHwxI7Aau+eoR5jQc3hjjf23CuDmd51Cys25r3Yr4ydx/rXnAXyItXzdISSrxSL+4LNNrMzaX+Pme2H8e4fl7UkM/teu44ZlfLDmPvlgFrpToRNY+30Zue99H19buWVvW3LqqWeQe/P7OPXUCY/1jgiIcdy5f8OYGhgwBgYGjIEXbxgP+L+bfpaNbUdC28bywJRx4347mT8wbrzoTXuq/ICluOT/Wyf5itJt+Vna9k3vQXmq0R7qctMys2Mbvy2rXELqsjEwMGXcUK1rYLWxu524+raZ38CLNwxHC/rk6agTnxZ/vtlX7DrYf7vKK2g75zWw8nfXS/T3trHcsj8467vtKrenboHKbf62tC24Hty1cpdbcA0cZfZtQ9F1F/Wbg/QNvi7+5fTtKy2vgRO1UDC+9QMrk7eN6UKtkefNa8anv/F2I58fbDj/NgzDuqat8gmMuty0nxuG2T+tvjPguu5L23b/tcvkbmu7bcVtbX3Pzmf1c8wFQprkL+j3ojYUzt9N5xB3//K2VXBYWq3r2Rq1UDCmb/60reM/Xaix/vY7hRafDSNoEZuX46fG6jfE6amFgjH9DVFZmufN58fqEryshmEYS/+panz6dwrGO7tt3ajNzJcF/erRoocWOs6FudDGujBr3Vk1D+kyXOvQWJrYbOWG1VCeZub62TBXjiZkuDT5/6s5CSvccU3X0B003zkd+pzrhyYuXGY1jLRI2WRkFro+KnRfqDkJ8bsF1PQSe7Kq5iGNSa72VZC+PI6arsN6LtdWrwKv6tCvcOkM5RHRZxFrld9iBhW9ZD/1qzkJUWnfZQkQ5OmuV72M+ZSCzGappXUuOzaPwq5Z3moe0lgc+bPOa+y0RrBrp0DGeNOUFaSHhlHRdeiwXJ7zKD9rXTOzD/D9v5qHNKYAE81TDlLuBsyafSbIWrx6GVexBF0vceWJIh8JsrSB5dNYFaqhPB1F+nTFPvdgfcO7dLytvtL0GrSq0nNY/Ox1nDx/2/wiDGWtl+5WDeXLWWChwur07DhkpLFVnUXMfT3W01g5V2tcO6vdFuPY2uTnEBX5W6PQddPDUS8jORRH0vQ0nDknA6ktqHOxRjtWryK9LqPwagioXkUWMgpBvQPu/M11d8ObOvQRs47TUcfyCDW3hVHzmlm/x6cH2e++/aThhtWvsO/UnIS4hAOuPw0hcTEDaYwtsZGDune5NZf8Orihn/w5Tp5vEn0k2M8w9OXn8cGXzWTfuo4v/OQ3nOvqeGuXO9/f/Buc/KYoP7el0Nxbccd0z7rT4rj8nZTAMs2scfa5TfP7CPL5ovl/3qInZu4rX8Spp04cbC+6kQsoIIqolIZzOc4jRK+Uo9vq1PZTkEh989/dv2FM+ahzlnczKxn/NOr9vpmFzm1t4v8+eL6CI93WpzbS8D7lCywK910WKC5t++ndfFJuee08afnlJ0rLdaxPnh5rjcjS1tS65FNHv3L5WuR8/hbUpZW1pbWFrkm5BZYWYX7CcnrTtds/UBty9WhlIQnSN4JeE2FfaX4NRDgsdK0QWui6iKeuYguauK3NYwNYKbaXmrev43fOYtgccf6OtCxa9UNPnt7rKJwTm/TP9uAshgGtPg9u/v/tnV9oI9t9x79eSt5uSj1FTdTEZkNJKwfHFKSHJbXxS7CIxxFZ66UXs+Jug0Qvhl6EDRFzIQRWaMG2kgd32xGNwbBsHlZeUD17K78tdsrSHUHqmFohhC5ycpVd0aE096EQ6E4fzpmZM3/017LXWv8+ICzPjM45c+Zoznd+v9/56ZH5J2rdtCxfP1T3ubWqbv6QW6rsseYZR0GWNKc8ceNPzbseq1fgcR3KZdTNH37nkbn37/7yTNPfvp7O/Tvs3HRVNf/kO4/MvbdoKhPnh2FYXEeF0UhbEoiO4sIx1Hs8AD6cxMbiPiKeVAfM6iTjPKkKlQMDhsFe1a6RrMOrVygND9Ma5MU5wJfOhDEzeU4bQvMMGjRkpsVUKhFkKt4Dg+P4XClcpjPQoOGsU2qM5hk08HQuLiYxkQC0l42udbKnMOHaIH7+VCLt2hWeOPe1bLzUgNys76lx8uZbTqTJU5GI19zd/72VES8AyoH/qbjvseGlr7EyGPd/ULJTPbSjViq1sYAMj9bzfc+5cgtaYds/rhMTCLTLT036LYqelEnxAoDTBrPphZNYzQH5Z9a9k8fwzQ9o33DV30LjFEAh7k7TtOD1VbC0TO79x2h06O7GSw2oZBCRvOOrA66xLkGSighOjsMW5hhGHSoyiLQ9Loj/wtkv38NEt9WlXTj7zWdY/NI5Vli3/hX/UGWxfL7UJS0D+O43cfuLbT77xT/C4i/P8NOgPCutf8XfeNKS5PBNvHrCFltE02m8evJNoNgm1crgJ+QeI0Fpwjih5V02LxwoyC+0P+5d49IEXWytCsX6J1ftb6VqAK29bRyXNlxulNDyBtTTuJMjq1nG9qmK+s4qglZkn7MFaJwCWjpiDy47jcaQ623tbSMPBavLIYSWd7H6MgLpbpk7WPjq16HgFkj2q6N7nOUMY+4wfvyJOiQh2x9sjGnYf349vrzDQN9kk6fz0FKHmui7FBQX8pBLdc/3+uqMjU6wCSjdNWWEfdyFrXhlD25AHnFh0mL3lcHHdWsvBWk6A5TqbR9MY/MKUDhioqV2hLwoKsMTkJHH0TlyD8pC3c6Lu8GbZaSkCDJQUbf2HShdywTAwncC7llt55do1nNsO7ccz4Vot6sP993xr3D/qxP4qz/lCyNuH+I+mpBvs1Qm93/gfTD4L5z9JzD9p6J4+wV+Wn0Pi1GPoPvtf+PpV/8IE93awF2o099P49WT21g8fOLOVxf6Bj7qlI4n9OdY/OpnOPtt0L5v4MdP5pwVrbDOU8xD53XJhqE96exu7Q4L8RCvXzuXOMu36dzbrubK6OFziRY664mnm0DoAR4vJYop0bqQX+BPU+EkdgfN4WTdZCpAfsH9ZKulI0jtHeKs4rbe1Ut8qjpPvV5qRUTSmsvyEVszUJ3KYN1+6hjC6tdBb9q1IxZfcyLc8JpnnZ+SO9bHBOrA1oGh4LcMMMvJELCsIk7JOHw6lJIHgFli3EKs/wcEfTOOfELFhvemOejY8HKlx8oQsfvLL1CqOUB7ejjAL1bw8ZWrumIUG6eew6KzUHgf68/ykEsrzjULz2EpAeQflAeoP4TJqc5tt6ySVeGe2WoctznaYfKm7IjQYWFb8HhsnmHA6PNeLiajXvzubbx6MofvIQztSRpanKUNefV98YbNLXqCtaxWOmSicIBJpPXJT/AFLuZYepI/xu37aWhf+Q98XUjw25k/xl/NvYf7PxGTFosJhwEWE8cfcp7cxgMx48hXv4afP+H7/vFrWOz/NAbAseCx2OEu4v4dZERcrjxQuMJSUuiPmFk9+KnPQDV3vqdJAHzxhQHDqELhlqtqDvYT4e7kmfsp9iKoFe0nDO+gjK3xp45mA8eYwWRfgi7AVWXdtBfcrgV9s4sLMzwB2eVCY9aa7vVxN4+vPiYOVgboV30zblsyBya6AjWhITMttIs/QJyX2Psq5ErGFRbQ2lsPcGsPh9DkDDq7rfzXhfVhH9SKLDfZvYBJb9Cx4Stn+GNluDBrznndOvqzPJBYwlzAdzk2rwCVDB72fV9jgkp8kAgeczztz7Mijgoylm65QvWR3KlCqQS5Hnkeug73CKvt62L/NMtI8e+Bb5wGft/84yR0awky8oi7wmx0FO8OIjz5uTxwrNWDWXV+hZ9Ww/jbDtYv20L3FYl9Z45/hft4DxO8utYnP4FcfQ8Psv1bgmulEr5+OIGfP/EmAWYW5p9/9zPIXUILLELf+kt875f/gUfCL0h4heeVovZQsPJewwURGIk8dHxlYEJFtbSPuCSxL5x3FahAbM0YzsUUBFUMANYMVDclSJsq1FPmYrqoQcNW9SFQzIm0nu9DSyxho6/S2WquzEIcUsFZzZXcMTC5KSEuOZOucmAg20kshpPYKO0jsmAlX1ZQPVEhT2e61hdbM1C/mUJEkpxDc1UYO732at7V1uGsbLISOkecshMq6icqML1/rpIRTmL3BEhNs34AWF/US0DEu7xsGERXoCbyyExLyAT2TQjJeyr2hfYoB3WopxFkAorz0SwjxQUaq8OBXeNBx4a/qvOPlStOs4ztAiCX5oIn8egsFLA4t2y0v3OOrVWhSHG++o/1cTWnIe6x0oVuLUFOZ5BPqKj7vvPMw7Ky57kGvfxSRDQL42QCqekIpDTfllBRt65dNItqTkLcGkMJFfUDBdqCaKULGidJ7BqTKErO+LXuAYM90g2S65RzrOHr//QZgM9wPz6HVwAwI+PH3EL20RPuzk+n8SotfpAl9l387m1EYf3CRPvVoLV/awJf+TPHkvnJT3i9h/gCgFfpNKu73Rl+66877nfzF/jo+7/CF35QAr6fxkdgruSf2+0aLLHwhRHN2qvprytjpmmab7sRHWnqKD5qYGWNWwB8Pz3TDvFGo6MobWPCdePxphHx3Jg6/dKDK1EwT9VQCShjkHqt8hD8kz/+n7yin94Zdex0MVfpJ56Ia0ivaaAIFzyVyN8+kRHtmtLDzff+7ms4+RegcP8bOCuVIP+nJ5WJL50ITzniq/cX+NHtQ9zvqVZBMLrKaMOxZsf8OUmLf4Ef3f4ZJryJhf86jY/g+YWLXuoghsLVF3QE8U7j5G47d2wpQZyHWhHSwqA53AiCeNuMSAwdQbwDNMtIeeJ79M0IS+D6Pk2hxNuExY+5FkMQBDFSkIWOIC4THpfpcE0zmhNXBitet69f8CEI4spBgo4gCIIgCGLEIZcrQRAEQRDEiEOCjiAIgiAIYsQhQUcQBEEQBDHikKAjCIIgCIIYcUjQEQRBEARBjDgk6AiCIAiCIEYcEnQEQRAEQRAjDgk6ghgC+qYEyfMrEARBEARxWYycoGvtpSBJkvO64pOovim52ytJkKQUys1LbESzjJSvDRKKtUtsw1ulhfLdAa9BrRhw/YTXpn7hrScIgiCIboyQoNNRlCREni6hbhgwrNc9YP0SRB0TkkUMNH0nVHebT5awPz2IGOXCZEARoRwIbThQkF8YIVFXKw4mhGtFSFIEmamqc+6GAeNgBplpCam9LlcgmhWumwoZnn6kn0oiCIIgrgAjIuhaKN+NI5+rwthJIiTuCiex69121QknsWvUoSKDyNuy8ESzqOaA/IOrbeE8HzqKC3nIpbpfeEWzMA4UaOnI6IhagiAIgmjDaAi62kNkKgqq3awh3LVYrDFrnsui43Gd+SwzXteaLbSYVSyS1gDkEZckj6XOqqtfF3AIyQ8VoLDtsjp5Xcp2O5tlpKQIMhUAhXhgG8/l0u2j73yWSvuznnYE9kWn/nIskJarOrXXYu8X8gA0ZKZ5235m1Rl0Hqztrb1t5KFgdbmN3I+uQE0A+WeefvTU3xeuvvJcB8vKWLNc4E4/dgwlCLBOsuMDtl3xEASCIAjigjBHgBcb4+b4B4/N190O/PSxeWd83Bwf3zJfCJtfl++4t/Hj7pStEl+YWxsvfOU4+wPKEI7b0u2jzMcfuNvaue0vzC3x858+NreEOk19yxwPKn/D1QrzdXnLfPypUOrGeOD5OuUElNWx7+64yvdtsz8rHsfOzXXuXfuL/+9rq9UXYvnBfSH2dy/j5nX5Tm/1B7bfU++42B7/WLCup7dNvuvl2+YZJ0J94hh9seH+nyAIgrg+jIaFDgCmJnt2q8qlFTi2PB0P0xqUg6yzLZzEag7Qnh5ya0YMWdH6Z+1/2ehYj/4oAy1XRTZqbeFWt8o+DvuwkB03Wna9WdGaxC1I9v42hJazSIad/2Pvq5BxjEaHNrT21pGpyFDfd1s9g/pOLm24yg8tb0BNaMg80j2fFY+LIXvg7oue+yuhYiVK1DW7AAATMUlEQVSKLoQwtygDhSOXtfSoACgfCi74XsZN5QyuK91T/QEkVNTtcdR+LLja1yxjuwD3+AQQW6tCQR7bey0AMczmREuijqOCDCUnC2OUnfvM5EgFHxAEQRBD4g/edgMuAtek1mzgGIC2ICHvPTAhvG+WkZrOQHPtb6CFWBtB0ELjFEAlDqng3ScP3t5akbsXBaYaQBdZom9KiHvaMdMEIAixvKsPFFQNt4jwtaXZwDFkLN3y1h3C5BSAU7F/Ao4LT0BGHmdNAOE++qtH8R5aXoWSjuOolkUsCqB2hDwUVEUxdtrpGnISE5gcoP7BkDEhXBM0z6BBwapPQE5iIgHkX7JrH5tXgIUj6GsxxGpHyCeWUJ8/Q97a1mzgOLAcgiAI4jowEha6yZteS0y/yFBPDPcqR8OwF1i09lKQpjNAqW7vq+Z6LFn4jPPadVm02lI7Ql6Y4K1YMWcVZR1qonMRVkxavKCg6lmN6cW1OjNAzF0G5+ovH27Llf4sD+Rm7fOavCn7rW8uWjh8ql2wgBsS4Qnb6tpqHENenEMoOgsFeRzVgNbzfWjCuRMEQRDXi5EQdKFbS5Bt91OfhCcxAw37z9t9lk/quSp2bXcntyZ1bhUmp0S3bb+wFZjIrXIxw1xmcqkuuCQbOKt0KYaLQvVEEGjNM7elcVDa9h3rH3lxThBCGrPEiUc934cGBbNR4Pz9FUxsXuFin7khRRdyaHlVcFsGUHsY6Ha+VLgV88i30pZde2Wety08h6WEhv3nOg6fgltDmaA9brTQeKk5xxIEQRDXjpEQdAgnsctTTPhysDXLSHVc2ccmPS297lsRyFZIiu5Da986W00qEJqcATxxabF5BahksC4KhmYZqW6pSJplpCSehsWOuWIuNjFuT9+Me9zE/rYyQSCKKS4Uh0IMKyU5oO/Wkan4V4/mF4TVr80y1tOaKyZv4P4CAs6TE12BmsjjaJO5Iedclj4Wxxc4brhr2xsfeOnweE1X34Ffe1csH4sZ1J5uYx/OecbmFWhP17Fd8LhyCYIgiGvFaAg6gCd4rUM9jbvTO3wMbHTJQxdbM1Avgae8YK91bNiWsNhaFUolg4iwz+dyja6whQDTQrqJaBbGiQqkI+72eNOrCGVLkgRpeh9LJ96ktCEk76mQC875Hc37Xa6x91XIVnmbOhBOYqMkI79glX+E2TYu10EILe/aSXitdrHkzn6XrXIwiyP7HJkLe9e1yKPH/grCFj7edCBM6OQLeY/FUKgzaNwsAFXDcLfvLcHG5zFPicNecfhzLoZuLUGuaIB4ntFZKBUNmk/MEgRBENeJMdM0zbfdCGLE4QtKZg4MwV18idSKXKC9nbhAgiAIgnjbjI6FjiDa4F0MQRAEQRDXjXcybQlxjWiWsV2QoZ6QnCMIgiCuL2ShI0YU/hNi0xnMHAya9oQgCIIg3g0oho4gCIIgCGLEIQsdQRAEQRDEiEOCjiAIgiAIYsQhQUcQBEEQBDHikKAjCIIgCIIYcUjQEQRBEARBjDgk6AiCIAiCIEYcEnQEQVwNakXP7/QSBEEQvTIagq5ZRmpTd23SNyUUa94DdRSlInTv5gBaeylId8todTkmtdfpCPBJyPlR9a7H90uzjFTHclso3w3qi/6Pbe2l7H36plOn09fd6mL7nbby5L+Br96u03DpPD5aeylIUofz49ci+HzavDZ1BPebjqItXnobt74xWyva/7f2Uryu4HNyve6W0eJt8u4b+vjtmRbKD/IANGSme+lbR/g55y72aTDiuLY/2/f15DTLSLW7bp32EQRBXACjIegwhyXEXZNZ7H0VxwvizbuF8t04jksrPf2mZ+OlBkxNItThmNDyKmbSEfsmrm8G3OAfTKBuGDD4a3e5U4n90kL54wxQUl3taCusAgRHsSZO3BFkKkB+IXiCCt1awvEDj8itFRE/VbESBdA8xD74+yBqD5GBig1XHyioCv3DXlUo5+2agYhhpXSMuDWOPP0VSWsAPP3jm5RlqCfe8+nwWosBCCF5zzNea0fIYwaTYQDNBo67tr2Fw6calA+TwWP21irU03jwQ0qu6rTnwN3zyoHT1mquayMuDH0zgsxUtfd+NaxfB+H9Mt/+W99O7FrIpXpPddZLcpez8D7QEARBXB6jIejCISTX6lCRwUNLxIST2CgBmUeW2GITQj+CSr452eWIGLJGFUphG+UmEFsLuMF3EYXnwTmnJLJGnU3YnZ76w0nsim1LqFiJhpDcsdpch5pwJnHfBBVOYmPxDIe2SG6g/ACo7jAR0Xq+D62SQSTQUqKjuGAdyyxzqb3GBfXM4ISWd1GdymDdnnSDBGc/wrNHC2k4id2DGT5eLWtUHnH+82Wa9d5lRRPgYtknpitnaAAIhWNI7rDvyLpXUBTiTrkLedcuUbzGC11P9kJo7aUQP5Uhi+3s2Up2iH37ISWOvMfC14vlWktHeqrXEvxu8ohb38nmIfYrClaH+lBHEATRG3/wthvQO0yYAGCuJnti0iDZE1Gcv1dQNbIdLHU6jgqAlmsAXeVYDFlj9zwNHwh9U0L8VEV9xzoLdv5zeylENiegdvpwrYhIegZVIwnspSB5J6KKBGdaZ/2nHFSBhTjfbu2NQwMAKQ/loI6Jp4B6YnDLiI6itI2JE2Yp0TfjwIGBGNj7fEJFfXkSD9NnQ+iN4RJbM7ALAE2ATcj5DkcrqA6r4mgWRhRArYhMRRijzTJS02dY7TBm9Wd5yIt192gNT0CG2L9sjCS9H85VuaWQ1S09cHYpBwayXCTqmxK2Bz65AWmWsf50CfWdSTyUZjr2AcDEX+Sl87/+KAOU6jCWQ/COSfszXZ4r5FK9b8s66ysFgILqyQS275axNJWBBkATxpPmGlvd7ksEQRCDM0KCzkNCRX0nwP3EJ8eOWC6uwhH0tVhPN9jWXqrNE7ooKAHmknMmFPa5mb5u5I6Y859faHkXBloo323z4VoR0gKc+pZ3YSzbZ4Hy3QjOPmSTOJscV53J3jCQ5f03k8sjD0cItPZSiFQ0KB8CsCdL7jLkAjlfsISigqrBLHXtBdPgQsnX7nMxyCSroyjF4Torl0hmtBUK0SwMo4/qakXEC4BcCtp5jO27ErRKcN1svHjqvldGSnqIVcNAkp/LcamOXUvoDkSwmOpKOIndHfb57uKak1vlb1qYnK9jI3pei1gD5bssHKEbrF8bOCoAM6UJHOOMncO9MlLTwne/B5FOEAQxTC5R0AmToGgx6IZgjRvkSTqI1vN9aAkV6lQGR7UsYkExYaIVMFeFsSYKI17OUIUFp1nGdkGBkssgImV8u1kftPuw5cqDPTEqB3VMPPBMVqL4sCbHZhmp6Qy0hIq6kUVjM89cdbZYlaHkZBw3WkA0xGLAEhOoA2BWTANZWzCKk1iQYNJRlI567hIvoeVVKBJvWzthH4C+abkV+cQLAAng6K6EeIfJXLRiMazzBdoJGdHa5a53A/g4WDxoHjFjXWvrmrrLEpiqwtgJGIMuS3aX+tIRSGn+vp/vp00MKyUgMi0hg6A+64Xu4tploWseYn2BWcVc8DZYZaqBQlhk0m/ZbJaR+hjYCHxoPMQxFKzegh37aFkK+xKzBEEQQ+TSYuj0TcGiUYj3uCoT3JoREO/li+Xir+mAG7wLFkQtL84hOa8g710E0K3ePgkt78Lo5yk9nMSukcUs/MHa3YPW/fFyQdvEQHh74rbi73bmcHhXwvZNb6D4LrLzM9CeHrJVlY1jX/xga28d+4v1ASbyfmGCyjAMVKescdA93QWLgRTi4ppnfKywOLp6SWZ9fqJCTqio230oYlkl+2itq17xevDXiQo5IJZvdzmE1t46MlNV+9q74zj59Wy3IICPYV9MYEJF/USFDLgXTHjHRJ+wsc7O53ghIN6tK544wm5xbELMqHN+3kUrWcz1VLdnRfZ0JiBelMfK8e+o2EuxtWEviCIIguiP0VgUEURCRf1AYX+52LEn406fqz1Exgpcjq64F1p0xZ3qIZLW3AHnl5CmYGay06Qhpm1o4KwiYyIsTlQBq1ztgG5rxSc7xhUobgXoR2ehVPZx2NTxMO1ZWdgsY/3lEpaeRoKD+vvCn1Kj3cpBS+DUS0Bmutf0LbyWxjEwNYGJgdsJ7r7vX+SJ6I+sRRH+8dN4OYNqW4EVwuQUkH8WPOr8q7KPMGsYMHaSCFliaP6o86IDAV+Kj3bX2BZaVSiFNitvfTCRXs3B/k53XjnMca1U7n9RROOl+PgniEFb1IuiuxMBgtArUPsStwRBEP1xaS7X2Bq7uVsu13NZcaJZGDsAakX/vnASu23jk3QUF/KQS3X+dB1C8kMF0oMyVnp02wFt3Em9xO6dCxanhvlOx8Qwm9Ow/byF5OQR8okl1MMxhGz3oDuGzkU4iV1j0uc+1DclbN+c431judXibNIVytAfZaAVZCydGOza8DYPFkPXJrg/ALc70+jD5WWlAdkATiNCGzVI1jv+RvmQb2ieQUtMYEMs5fk+tNyqJ/ashcYpMDPffUTZ8ZJGEiGe01AcX7E1y7EbTGxeAR400ELMN35jawbqN8XYT34tEirqO3M4DIgb6xTWEFr2hx0EYrnvgb7ct861DA43sPG52S1Xrej+5mO9h3rZQ1IDVg48sWbN1Q4Fq2iH6IYHxdARBHHpXKKFznGTnSvmTEgyzFb+zQUIsaAEoyxPXT7nSW0SzTK33RV9enasLGzlaNsccJzY+yqQfogi7xu4rCpBFjrHctDa22YWjo+5RaVWRLzgTsMQurUEGfD1O7OUBQXEX0QeOscawsRQu7o7wFNMzEadNnZzufrczM0y1r2Wyj7PwbX4JZq13ZU95zKLzkKpeKzMQsJhAJeWh8624E1nMHPQz3ed9wWq3I0cNGasa6HYaXTOj46jgoyJMOC6PwVZ6Lj7lsQZQRBXlZFxuTZeaswN+DGwsRbjYkPG0q12t3bRDcae1jNQUQ+YYGJrPMdbB1HHkpMe9t1uNskN7op1xUzx+LbUHpDcaRN0Hk5io3SMPBdidlxTuxg6YdK1j70HrEsSpIVjqCfCJMYtL8gpQDoS4M4SXaUX535u7W0jb4mUASf3s2f7QKck1JUMIlIEmYo14fPYSzt3oY7idAbaINbmZhkpiaV58bU/nMSuUcVMer3Hn8CKYaUku2JBg+IbLx4dD9OwXZY994nYF1YS5p1ZHFku0z3LpboO3BtMVIWWd4OFZY1ZsefCAb+aERhDd95QAoIgiAvEHAlem48/GDe3dPbfi41xc3zc+d/adqf8mv3z6WPzzviW+YLtMbfGx83xDx6brzvWwY+zP8drLt8xx+3Ps3aMj7d7uT/rfN6/vRuu83G18Y75+FNXDa6+YecutGmjn5qd82N1sz65U35tmvqWsN20/2f1Wp/ztu2FuRV47u22XzTi9fO2tQv6lnMdrT5u17efPjbvuMq3xtYA9VolBI4HC35ewhi1xoM9fsVXh7Hcvo7LwumrO+XX5ovyY/OFcA7id940zYDv+h3zcXmrTV+zc2bn6H/vKvvTx+Ydfs94scH36Vvu+4ir7k7tIgiCuHhGRNA5MDEXcKPUt9yT08YLe+LtZ5Ji5VsTgXjTd/73TSqmOfwbuPd8XALNOxmLQkOcxLoJUOe19S/tRQoTBQFCxFffAPUG9eUF4RJF7fo36PXBY/PAmtT5mPK223rICBJGYr2BAqvdS7gWnQWdabr73BmHr8t33NfUFiX+sdy9jgvCdS06f4fEfvaPnaAHnjblC4JN/F53vT6Bgu5qjneCIK4XY6Zpmm/bSkgQBEEQBEEMzsjE0BEEQRAEQRDBXEraEvN3v8Pv//kTvGm1gBs3gLEx4MYYgDGM3bjh3jY2BoxZ2wDcuIExexvfbx/P/47xcuwyPPtvsPdjGHOVK37eOn4sYJvrM3abPW0R2jcW0D542jcW0D542udri/UiCIIgCIIQuHBBZ/7ud/ifeAJvfv2bi67qemALRCaIXcKvjSDG2BjGhiGIx8R9HjHrFaFC+7yCfSygfV7BPtZFEPva3Isg9raFHijogYIgCOId4cIF3e/3PyExN0xMk73eCJt6+diFNYi4VtADxcAPFDe++AV8bulbGPv859/iBSQI4l3l4l2upCQI4t2BHijOxf/+vYo/rFZI1BEEMXQufFHE5779Ldz48pcuuhqCIIgrz5tf/wa//+dP3nYzCIJ4B7lwC93Y5z+PP6xWmOv11Wv+dG8CMGG+eQO8eeNsM03AtLYBePMGpr3Nsgy8cf81eTl2GZ79b9h7E6arXPHz1vFmwDbXZ+w2e9oitM8MaB887TMD2gdP+wLbQhDE6ENhiARBXACUh26UsMUdE8Qu4ddGEMM0YQ5DEJviPo+Y9YpQoX1ewW4GtM8r2M0ugtjX5l4Fsad99EBBDxSXzY0vf4lcrgRBXAgk6AiC6A16oBj8geL//g83QiF87tu0KIIgiIuBBB1BEARBEMSIQ78UQRAEQRAEMeKQoCMIgiAIghhxSNARBEEQBEGMOCToCIIgCIIgRhwSdARBEARBECMOCTqCIAiCIIgR5/8BPYrGxl+cM2oAAAAASUVORK5CYII=;" vertex="1" parent="1">
                    <mxGeometry x="30" y="380" width="628" height="263" as="geometry"/>
                </mxCell>
                <mxCell id="5" value="" style="shape=image;verticalLabelPosition=bottom;labelBackgroundColor=default;verticalAlign=top;aspect=fixed;imageAspect=0;image=data:image/png,iVBORw0KGgoAAAANSUhEUgAAApwAAAB1CAYAAADjnzHGAAAgAElEQVR4nO2d72sjW3rnv7Pk7X2xronurGBsOiyTUc86fjES4e6smyaQtZiWEfdaZHYuxqKdQQqN2QQhM1eos0PCFb4gWcmypndKZAwC0zeJpSbG6kEi7G6vPZPedWlgPM60ZoeQRp5t5VpJEdj5A2pfnPpxqupUqSRbdve9zwdEt6vqnPOc308955ynPqdpmgaCIAiCIAiCmBL/4qYFIAiCIAiCID7dkMJJEARBEARBTBVSOAmCIAiCIIipQgonQRAEQRAEMVVI4SQIgiAIgiCmCimcBEEQBEEQxFQhhZMgCIIgCIKYKqRwEgRBEARBEFOFFE6CIAiCIAhiqpDCSRAEQRAEQUwVUjgJgiAIgiCIqUIKJ0EQBEEQBDFVSOEkCIIgCIIgpgopnARBEARBEMRUuTaFU6lIkKQJfhXFM750c+i6PmymhdcDMWggLVVhpThEY31MedcbmDD1gPKJ8+2GyV7tOi53qwFk9AjrKh8nCqoTlNWwmQ5clkY7EpcBl75HuxFKXZEgSWk0BlwJeMkk8eVitA9Rm7HH54lep955cmLVjSFjtQtbvZqye5VBt2qTz7dvOurg+stKQZULE2wcMeJTUB0Zd8B6IgiCIC7FtSmcsbwKVQ3y60FOAsWO/nc+BsCtSMbel4HM5ujJolsdMRGOxpRl1K9TnKBkgqM8zqKVTATL9+AIhwdFzPYdysBSCTjIIuIoD5uyMzjC4UECp48c5TafRQslxH2VkiLafvUpKKvQSl187/YcQkELp1uFJMVRMv7eigd7eelWEd8CgBay81ZZhFbqUM9kJACg0IaqqmgXgsixh+wBgOQy7oT9ZDXK9BDLZyzf9ZWQZ3s1FbXBEQ4PgNKjBvpmhEM0HpWAg0McDYD+yxYAoHg3JkhcfxYtZB/by8NWR0beb7qsEMNq7RRxXTHkx5F2AUjUeoK+WEcqDGAwh9XOArLz4/V3giAI4up5c5fUwymUa0D24QhrXTTnmIzaKCKBWc8J7vVk2EwjvlVEe7eOjYJbWXA9//wQqK0iJVLmkjJ6jkm6vmKpdsrjLFAro77rmMjPZCRcCqUKdTcVXDEUS2uzqA77pwCAxC24LMxM4QFamYiu6OpWzaUSgATkM7tsvZqhNiUgv+9QwLpVFs6mJCWw/E7ILMOWS1a/tmMocxAq9ablzWyTbQhfUVz1wz0XTqFcSyBxe856vt/HOYBErYxUWMGxXkalJcFLga6wJmo9tBGHJKWx88IrP69BWYG9kPRqcLT5IfovgIU5n5YXDiEUzUHtFFFaqkJxWeDjKHHKs02xJwiCIK6UX7ne5BRUeSsUR7GjIhcdL7bQShny000cDVLMoiFi0ED68RzqeV7ZWMBc2FuWllRik/7uHf3KEI31CLPGeJGU0XswnvyB6VYRyQDyWQ4xAMj3IK9HkG72bIqihYK9DLB8NoEaOGhgZyuhhxWXUUvirxTRVnW5JsWwdB2kMXtWx5xuoVuYiyG1qyLFPapUmNKZqLG8K5U0TpMADgDD8pYVJsLfYzLjmZ6PrTikLf65KubOZrGTaQFJGe3352AoOE45GCXEpRISyQRaB+K2bH9+cobNNCKZFoCWqeCVMnH2n4M9NHCKEiwZWLoJyB+mEMIQjYdZtJIyeu8cYTMDILmABS4uL5QbLqvQSh0qYCm+BgeSo31a7XHYTCPycgNqPgdVZXdjqoqclRKq0g5mz+re4wdBEARxNWjXyom2PbOtndiuXWj792e0bcXrb/1qY01ba1yMTqE843rOdk3Z1mbu72vCmF7ta2s2+cSyeOIX96S82tfWZkQynGjbwuu6HGY+WB5mZrx/fHmdlGe0mZk1bf+VkQZXHs7ycZUXk8kvLduPKyuW7ow2c39NW5uZMeV31qfxnLfMjIvGGouvzLc2Qz5DZvb3WuOCxVE+scJxz/HXbG1Lrxv+uW3FuG6Xh5fRzKvrt62dCNuQu9/wcTj7jiWn8bceVtl2pbmt+MnD19FNlBXfdh3jhqvtua9dvNpn9e3ZJ0+0bUfaBEEQxHQYe0ndOiDwOm62Fy+zxfJtLOj7Hof9U3NvoNfBo9eGbhXSfBYLhhVo0EDaLPcYcmcyTpec+9MUVJfcdluvfai2vXbdKuIvEu69e2Mx/h5OgNVREQAOdGtbYRGxQQM7W0AryJ5Vx9IoswLCsZdTbNH2zgOzlPF7TJ1bD1gqbF/rJsrMqvg4i5Zgj6SVV74M+G0AQSzFbFk4vpVAscBqylo6t6zwrZd9AH2cHwBIzmIOzEpZ7HDbDJIyVjnr4sg9nNdeViGkdj1kGZyjVVj0La9QOIWc2oOMLPZoDydBEMSNMp7COWhg05jI0Rq9f/La6eP8QLRvLIZcZwHZ+TQ2n7bMwxSBDx7peJ7GdR1GmeB0u2OvnVKRIC0BbdVnq0E4hbraBpYsGYbNHZQKRdfeQNt+PsGeSABQnp1C/nADC/aQ1iEh56Gh+ax9KXbQx2mwohQQQ45TQot3Y+Z+xVFtzTpI4tgTqe83tCvXCWtrgk4rE2HlsBW3FFVjv19FsZ8GN/PKlGFdWsi1BPCyjyH0PZRJGT1zG4d9idm4Zh7emQ/+8qZU4igV2lDVOlZv6al37HtVE0kAL/oY6vWRuHcHIb2cclEFe5kWK4cPx997ezNlBfOe2a+WSu6DYXz7NA+yMaU1FxX1SdEeTvfJfIIgCOLyvLmHhkR0j1HyOvEazaFdaKF1UMSiocAZB49GHMDhcZ6KtSZ6Ht0yE+hUvvsATr8iIY52QItXDDlVRe/WDqT1Bn78cgHt/KLrqSAWzljeuZeNxW0/vMJZMANbwQISnjXjKz1ik35opQw5CeAgi00fazRzlxNHCUW0dasqtuJIN4emEmSesHbUd6LWY+VQaFv12T1m1lBOsTKU9mrX2AtZRDHJHp9bqaOejyGkhys+SCHUrXofQunuIYsEEkhA7izjMKDSGcszzw3GXs5ErYdc1LIstjsb2LgN4OAcR88P0eIO9gD6CwkAFDYm2rd4I2VlMka/Mg+yMUUz3YQjrN5GHC8lV3MIjiAIgnAynsJpWpyASS0kcLnVGXEYxwuXP0ndYuTpSsewnJRwzFlfQisbKG4dv1YnUw2lYhxCK3Wouyn8+7xYSQ1i4RQxbKYtC+6gj1N9eRaAbmF1pieuX1f6gmV/a9kVnIIZQuoBO1m/8Y5bPsMv484t/UWgA8SlCM4fMGtnKxOxLHGGcjGybEuIL5XM0+KGYmUo7bloCHO3geKDVczaS4u1waSM1ahhwSwhvr6Hc8FzxQe6NTmcQr2zEGjFwMivkadWJmKztMeiMcTuFgGUkM207C6H+BUKwzrIWedtdeS0Xt9YWbnx8/vp5eKLV7pZHJvIgresEgRBENNkbAuntUdr0pOdArc6fsvGTgw/hUtAm7NEKJUIsxjpVi0nw+YmsgdsOc+wnjFiyI1xyto2wfN7BV9zAu3hFBBaKUN+EYe03oDy/BAtH9+Yw+eH7AT0BHs4zWXXpIyefs/cuxnNQd1NIRZ2p2wsp9fn9lidPFuEqvYw+8jar2la5ZxtQ19ydi8T623Ux9I1d0u2LOVG/pub+mn7LCL8i9RBCaUDx3Ow75808jjqBS6W57cG2K3siVv6q0B00dpawNfX4NxSIgXKt+8ezhsqK09ElklBe2Zt0rHqMWhgMwPrhXnkBw0IgiCIy3LNS+rjKXc8/ZctpuwtneoTrREPWzIzfFTWz2QgE3EoFvoEc5ZDaqUMGf7Ls34IHU2/AVaSSS2cxjJm+3YW8Qzcviw5+i9b4zlr52DWTd1qHs2hXQCKnTLujApovIA8W2QKB+K6VTUBuaYrrk+PMJe3LJ5m29AVsGJHdS0T9zkrmnOZWKooCK2kXO3YcLhuV4b4faULmAsD/ZeYcHUA3H5Ife9nV7daJmWUjUM6/F7arbi1n5L3STtum72hsrLDvjp0FFjoIY6etsw9rGYc81ksdLgX5nAK5dop4k6l03TCT8ooQRDEZXkN93AKDv7okyyzwHATRbfKlIvb3H7HcMpUOtlEyyYY1Mp6uBBSH8rA06OxDwaEVuoefi85JlS4ps2kFk7j04vxLWOvocdBKd1/p59C6on+BZuEWUfGAZcQQh5WdNMTQTTHFBV9iThuWEnVOu4YatftOYS4Q0mG0/gX/VN4OSef405bO5eJvZQ18/CS7X4MOUOR0rcjuPfKOnA5QudO14dTqBv7D9FCdoktfZtK1aCB9HwWrULbtFKWlrw/RRnUS8PwhsrKooS4tIPZsxx7CRF9Scr5AuVcTh80kJbiONX3vTLYgSemKJcQN7fpKKjqL7e92iniY3wqlSAIgnBzzY7fPXA6c07K6PETWziFusq7/zYcsbPlPNeUFk6h3jmH9EzB4jM2wdgUxXAK9V09JtORNiNR641lgRWFf20wlA9A4CCbJwLpqYwevyxqhmVlXNcvp/R6YHsJ9YuFNnq3DtEqbKDup0jx8oCVVQi6U/FC21OZdzkC59z58I7gVePTkEtZRCTdxTvvWDyag9oBs4bmYxg2D809jn2ALRMDQGHjco7sRTKjaNsC4kvSURdQUJWOXfEazu9ZniOQMnpKHRX1KADEUD8D0vNZZB8rmEPcKiu17oqvtCRoIwdZRNaB43u4sbIaPj9kCrTxmVuAWUYFyqxSkbDDh0suo2zuYdW3FGSssjK3BHDh97qpsT9CQRAEQfjzOU3TtJsWgiAI4nXDepm8gq9pEQRBfMYhhZMgCIIgCIKYKq/hHk6CIAiCIAji0wQpnARBEARBEMRUIYWTIAiCIAiCmCqkcBIEQRAEQRBThRROgiAIgiAIYqqQwkkQBEEQBEFMFVI4CYIgCIIgiKlCCidBEARBEAQxVUjhJIjPIoMG0uZ3wwlvhmisS6h2b1oOgvCgW4VEfZm4CqY8L9yIwjlspiGtp5GWJEh+PzPj1qA/bKYhSfoEwHU047pUUcSJdquQpDQaA/Yn+xb4qHT5Z62wZh48wluTE5NbkqqwpDKu2eOzo6DKhfGV1fwZ8Smojozb776AQYPV1YiGqFT4vCuoBpY56PP+bUOcR3tZesHaJJc/Z9sStCthG1hvYGjWsf2Xbl5FNx6isW6vv5HtwyX7EI2HWeDeHfYte9/w9rJzlROHUvHL4zj16+wvwdqrlQ/jeXE9BGtXBiGkHhRReuTf9m3jEhRUjXgGDaSN/PCD+SgloVu1lYPfeHM17YpLd6IJZ9L61UP7tB1WrxP04UB4vFD4loO4TXrV0cj64dvIJERXISOLiNfc5yVbpeHbPyy5P0VjrEMPEDOFOTQQPuOVqC3a2ujNzguB0a6dE217ZkbbVjRNe7Wvrc1sayeCpy4aa9rM/X3tQjOem9Fm7u9rJ401bWZmRttWLrT9+zPazMyatv9K007KM/p1UZrGszPaTJmlJnyeS+fCuKZss3Dcb61xYX/eM04jXS6PRnx8Gl751/NmK70yl76IVxfahZ6GuCxOtG1BvJ7oca01LvT8ievLittId1Q6zvsn2rYrblZ+rnwo2/bye7WvrfFxKduWnD5tzDcdLo2LVyesHh11dtFYM+veHsYd38h6GwdnfsfkpDxjlzt4SK7OuD7l9zPTEdVvwGuO+r7QxwDPfmni0X684NMR9Hs+HacMzrRPys4xzi6LeV+IW+6Lxpqw/XhdnxRxfKxfu8rC1h8uUb8+Y4XZVpXtQG127Lat18++R5sSt7EL7aKx7ap3UdkFqZ/AMhvzzVg/e7na5fHuHy65P0Vj7El5xPx71XNoYALMd17/17QbnBeC8yuTKKmXYdjcQSkpoxcFgDks4BD9ARAL25/rv2wBtzcQAoBwCuXaIfByjnugj3MAiVoZqbCC6ha7XFqSUDKeScro7aYQGhzh8ABI1HrYeBmBJCWQSAYQtluFtFQCCm2o+RiUioT4VgLL74RYXp4fouUKlMBs2HXRyD0aj3TpDrKISFlXWPmsjlQYCK3U0UMakccKUvmYGb7/Ali4G/KWORxCKJyD2gGkpSoW1UUcS3GrTAzmJVipF9FWc4jZHlBQleIooYi2qur3VKh3q5AkCYlaD/UVpxwx5M5kpB82MNydc9xTUJV2MKvn70oJp1DvnEN6rCCVnzPLOC5ZuW5x/zfbhfF3dw9ZGG2S4+AcfQCxcAyp3R6wHsFm844931txSFtcmKRs/tfWFgEkapfII4+R34cN3OHzEQClIiEO1p7HRanEcVrrIRcGgBBSuypSjrh3bonahUHJVicmrmtFtPk/o6uQEcFeN4WcUUeFyfIQmGgOvdopNlG28tOtQno0i/JKCGjCow8wYvk2jisK8L5+obuHw3s91KMAoOB4Cyht2duHkadhc9N8dthMI5JZgHxVbceXIY6etrDwoC64Z41NAPSycD4zfv2yMVX/wxiTuPH2+K4KNQoAMaioQqrAt95j+R7k9QjSTb92aDF8fgjUykit5JBa4W7odd3z6F+hlRzUOUBa2oOywsbO/ssWcKvsn14zjUjGPWsAjnHESaEN9X1APFZ7wcbcYAzRWI/g/IFq9TGeN2yM9S5nA9H8a/Xpq5lDLwM3XwYNckPzwlhMVZ11wVvANM37Dct+3cuiwX7W2ylvPZhxWmLu72sXpgVzW9u+P9rCaVgsRWme8FbXVxdWOg6Lq+3t+P6a51uTXWYHPtYWUx6j5JxvhMI68HsLsixXoyww/s8Y6YisI8b1K7JwOu/x8QR4+xa+GQcId2MWzkmxWYkutP37Y1q6jbAeb9L+ebyMBcye/ug2bhBwHDHiErQrM0+OduVnufIdr+7vM+sJJ78tP6/2tTXHys62Mm0Lp4cF07TgCcYMV1lNXr/uPHjLs1326ftcfP4rMXw6PmOuRzri9uec27zyZrs7ngWeG5NEMrit5u78eVs43X3FU+43cIwdZ/y9/Bw6KXyeuDSCWjgn5TLzwphcq8IpWsYWVq5HQ+SVOPeytbXcYVvGFihr24qfMsmb29kgYi4nl08ckwnX+UVLa+YSiPWctcxmr1RL4eSXKh1lICoXx7WLV/tssPZsiN6d5YJX3AMquUzub2ib/8Eps0ihHPX3GEtFQTvaqEFNcS+NWeHWtDXBsrH/lgY+Pav9XBXOPuDbjn1kDq60aZpo+TxYG5m0fgNMQn7hbYOn/yRqKwfHZOYnn+cSLNcuT8oz2lp529HXT1z9k5fLa6neL89XulXDKf9YCuck9atPcIreb4Isz/pOtM75YEQ8Zlqjt4iYdWGMsZycnsuRfB8RvMxcZpyzb3EKprxeicLp5A0YY8dSOC8xh16OyRXOm5kXxmdshdMa+MYrcLYnk1kW3VZFe2N1d15jMFvTtss+k035RHMO6MZbnym3o4L893B6KZxB3p7dlW5Urnmdy6PLwinqxKJ9TMLO7jf4TKuzOGXR02mIlZK1xv6VWDitMnYq60E6mn1yEnZSr843UtkapQxdBnG52PY9+8FNtCOVN1t/GNMiY2MyC5i9frl8epSjfWKZVOF0ILhui8tx3za2iPbdlbe5PAaz4l/HHk57uXpMfh7yTWzhNOLhxw5H33JbP33GL+NlXhmluJ44lEb/tu1WWNjz5rgxpqXJ/8yBjrA9Wulqmsa9JPjLL+rna42TQArnmz/GBn+ZcIa5uT2cXD8JbOG8qXkhOOPt4Rw0sGnui2ghO8Zegf7LBbR3V9FfL+GcvxG+g+VkBDvNVbZvY9DAzlYC8pm1l0CpxFEy9zelUQJQ7KhY7Rv7NBJIJFtovehjOABOAST0k1ahvIoYFFSX2HPyh0ze/hjZbmUi+l7NOCIAgAWYexwLbfRu7SCSaaHY4fa/DBrYMfedFCHXTnH4so8h+jjeAtvj4tibKYbtrckeWFdEe31aUonbN8P214nCmtj2n8C95+aqeCcHVc0JbiioZrg/B32cAlgcM/pYXoWaN/YqufcVYtBAev4cG4L9NcNmGtnbbbRvx7FjxmXeZXua7nrsaYk686W3h6SM3ofA5nwWrWnvM7TB9t8VH9TNE4bHdwX7sQYNpPV9yTEAWKlDXXE8061CWoJrT9Kwuem9x2skMeTUIGVhf85ev4z+yxYStzbQWJfYXkduj2V8q4i2euWteCzMdtStQpoH2qoK+67IIRovIjju5hCL9nF+kMDsh/x9BdUloK1OoT96YrUfhkguPyar32H/FDgoIaKPUS2phGKhaO3R7VaR7oOV5bNFrn+KUR6zflePxjBXkKx5xcGwuYNSoYiiYyx17gnkse/B5scaFaq/WHzKaKxHcHivDTkZR9YnPQC2/Yp8uneaaUgSm3PquyxeP0J6Px8209y+5CEaT40nvOv7zR9j+zg/gH1+5mOtSHDvdL3hOXTC+dDN9OeFcbi2Q0OxfA7AUKDoMbcj2aVNNN4pAw+zQK1nO1gSy7MObWwETtR6rMCirFCUrgI8a6G1dY6je6doIQH5Havah80d1qkLGxMdWDEOG8VhKJcAuscszi1DCbUGq2Knh9lHWbSSRRRRQukAmFups0mnW2XPPEghZFbgqk/qgg4+EmNQ66FuC6t3nttendQ4KDQmvp1e0GGTMnquQ0XTQXmcRQtAS3J3lP7LBbTzMaAiChnC3G0g+0xBLurOm+2wAwDoh6uMiaeupnQXHHF7wCkpocPmJqtXfSCJ5ds4ltJo8Ac9Bg2k57NAMjF+AvrLZgvGBJmAfLaB83mf9qIPwBi1gV900AReh3KMg3PWIQMpk4DcWcbh0inks/qVbNwXHTowDhmw8cD7gIizbfAHK9ikF8KdewlEnilY7e+glFxGL8yH38FsbQFxSTLD+I0QV8LgCIcHCSwbCkf32CWXFyMPaPjWrz6x8UpLt4rSknVQJFELmHuHsSL2vgzMb6LxjvugIuv7izjeOrZdH0cpsQ7JwVspccSrVNjBnHqUKXte6QHwOJjFYArkEI2mAkRjGP8FwYGu4MxOEPS1H2MHfZwigWVhW9aNPbfc1yebQ18vpj4vjMl4fjjDKZRrhlCWtfDSRHNoF1rIzkeQhcxOgXIY/qCMQa2Vidh8ScWiMcTuFgGUkM20gOQy7nCFaVplt+Iu/1OlJc631HxWcOpcRAnxJd2iqKro6WVS7KhQVTahzN0Gig9WHR1YP6WelLEaNU6slxBf37NbfQX4+eFz+R8zJo93Qo44NtlJQc+OEkNOZXkwfr1awsyn6vVzxjdoIF05BrCAOb0ejLJRO0X/crXliw3itjqSJOY5IABKRUL8hS57B4hLdl9ysbz/m1rsbhF40RfaDmJ5q95tsvM+4hxyJmq9KQ1SCvYy+sBuSYhcZwHZh5b/NuVxFgsdFeV746dgeGQw61E1BqwE5DNBm+DqObRSd93v1RJAoYgiiigW+Hitn/CU8eAIhwdFLEYB42VMPVvG4VIWLb7fe2AbO7gxxYlN5k7R1gcMuRbmvE6oG/lrW3GcyUjAkBsIrWyguBVnKyMPuHF00MDOVgvZl4tmWEMhccruJ//YhFOony3jcF6CVKmiulSyy+XDldavgVF2vuMFD/Mh2OKNCuEUyjUg+9jtMdCr77vGGv0Xd60qKTg2PZaEkPpQRkLQF4zxc9Wc8CddIRDNARFkM/qcJsVRQgvZ+cn8tLL+3UJ2nvlXDK3UA53yfxPG2OHzw5Fjg6svTzyHXhGDc7QKi5d8eZ7+vDAuYzt+twaXKbi3AUw3CTyxvIp2AeAnN6MhJm7plrLoIsyh6fYcN4CfW0qkMYhxFWAbCM9k2HR8/a2vlYmwAUefIMw3LR/z+dwt2ZxcDIbNTfYWfJBFROLeiA+YFXQk/ATG/VjZcOmIOtiggc0MrJeEIM6GBw1sPl3mlglGfHVlcI4WSojPn2PjLlBKziKoHZPJ7FRse5CTgslq5CTEnFDHX3BLHNEc1DMZp0tjOMqOLqJ4kMUen1+nQ2i+Thxy8XI76+gqUSpxlFzKuj4YH2Sxqef3MpOd0e8nDc9Ji6okYRNlqHm2YLSYV7H4LEi9GEoFG4jNCXj+HBtqjzm/HjHBJmo9t0LgldY6/3J6jj2z7Q/Rf+Hn/kzBXqYFbMXN5xsPs0BtlZtAYlgsAOCUUABM8RO9xAlk95d/AsIp1NUe5BcllDglaTwuU7+sDVefwTIOBHy59FIEQitlyC/igfu8SDEW9l/dAnyHU27rnQVk5y3n24ZLq7bPPOGl4IryLlLs+XlL1D68FHulIkFaP8KdXRW5MDPKJApF+/zXrXp/SOWNGWNZX/R+eWLL7U6ubA4dC/YCnTOMUVtx5qQ+nLN0jWjOV+/guY55YVxeg09bcg1X7UFOlhB3VqK5H7LFOnRXt1omOWuorhwC4AZ66PtAPCxxo9CV1WJHb8yFtjnA97m3TcPKYA4eFQWhlZTr7aT/Uld9bYpj21KUOYugvXyqOAosNNuzYexhNeOYz2KhU3e8/Z+6y5qLp/EYKNsadwip3R5mH4kHlGH/VM9bDnhWsslglo3HBML8rs5d3mI+aCAtxYGO4IUgnEJdbWMhsxnwKxExrNYStq/MDPunVyMnAKPtj/3ZxO4esgfAaX/I9Q39JUgwGeHp0RV9qsz+JYzx5Da+RHOMRcEkGMurKGNTbJExtq/o1s323WPW754u6y8oOcQMa2eniJZH/YqsNqGVumBcEC2bzWJ1t4fZR2k0mnvIws9iYq0ULD7TLVG327a02XJhEcVCCXGvr4iMYaFyh5tsIlQqEWQPiijeZsp78DqerH7Nr5nMZ9HS23DuLtwWzmjOc/z2V+yY9RGZSKC8BLNwMoXAPsbqMhpWYrN9+lv4vBTcoNbdYTMNaT4L1NpYfhrx+IKMTreKSKaFViaCnVs9fXxkc0Or0Eb9fcd6XP9UHM8bM8YO0ViPB3h5cr48XsUcOuHYDu7lSVWhdhaY1drnK1ImNzYvjMGYh4wuidgvnvDkqOu6+6SZ8Is/5qlQt/8xPjE3PhwAABhZSURBVFyQU+r81378Tqnb3AkJ8jv6VLvbVYozH6NOjdnLwnnaXXTS0/+0mbdbBU4e39OFo05/cif9PL+QEOQEL5+XyU4O+rvM4Py4BvHr6ONWZxI/dC5pzLYmaDPjxOF3Wt7pZ8/hY9ZihCscmycBUd2IfW6a5Wr2N+PU8bj1G/xEre/JS1t78/9iir0Mrb5vjRvOMYFvX1w4R/0EO6Vu9anx3ZsIxiqzX/p/aegy9WviPKXOeQ7wO6U++utnfPyicXCCU+pe45XoVLVnHQTw+ODj/skcnwX3nR5ZrOfF85bdv67dQ4TlFutNG2MDzr2usU67mjl0grFd0zzaM+eP1yW7TVe57nlhfG5I4XQMskL0giuf2JQfmysSrsKFiiMXlm8sQf2f/ZRzJ2ALI5gMxlU43TIIBgMv59CCuGz++kZ8mtOZltNhsP9n9/i8jaEkcvecndQ7b1xcDvcyvMuOIL4K/SaC0T7axL5RL+2UOODn+mySGL5cuXjHza+ovF1lF0iuyRxn28OPchg9oS/P8ok2thsnp8xc37GNO86yEbpF8lLAxGUbyI/jSEV5UoXT4WrHLV0At0he4QJOUC6Fc9/+cQm+//Nj8lgTq7P8dfnG+WSkY16wyTWq/mz3fV6mhQqUvY8GatM+n2cUK+pOJc4ytrxpY6xX2xDJP9KN0ARz6CRje6BPS3rMg6/XvODN5zRN067bqkoQRJBPQRLEeFgnxq/6U3sEQQSFxnYxpHASBEEQBEEQU+U1ODREEARBEARBfJohhZMgCIIgCIKYKqRwEgRBEARBEFOFFE6CIAiCIAhiqpDCSRAEQRAEQUwVUjgJgiAIgiCIqUIKJ0EQBEEQBDFVSOEkCIIgCIIgpgopnARBEARBEMRUeS0VzmEzDamiOK4qqEppNAbezwybaaSbQ0GMCqqSBCnATxi+W4UkVaHY4uP/1uVZb0CUOkEQBEEQxGeZ61M4Bw2knQreFSto/Zctn7tFtFUVqs+vV0uIg0ZzUDtAnFN4LZgyG3m6jN5uCvTlVIIgCIIgCDu/cr3JFdFWc4gBzGr46HKxJW7NXYVQ3gwaSM9nwaux2XkJWeMPqWTdOMgiImUBJCCf1ZEKT1c0giAIgiCIN4VrVjjdHFUkZLdEd1qQtgAkZXx8O4tvGs/MSzis9VC2PaugKsXB1L8IpAxgU24BACXEeQXRg0St7LjijMcPBVVpJ9CTBEEQBEEQnxVuXOG8k1eh5u3Xhs00Ii83oOYNNS8FNc+UudmzOu48TyOSaQFoMeUyKaOnqlisSNi51UN9bg/So1nY7Z+jFcdhM41N4R1eofUiAflsw/cJgiAIgiCIzyKvwaEh+2GgIIRW6ujVEkjUelA7Rdu9hTmvXZSn6I9II7RSR30lBKUisQNJ4RTqppLqtwe0DSZFDDmVltMJgiAIgiB4rtnC6VjWTsoAYlitAZHHClL5UQvXLbaHstBGGy3gFr/8PUT/BYC7onAxLBZaiPP7L31JQD5zyjJqST4BOVDcBEEQBEEQny1ei0NDoZUy5PUIql0Vuag7lFKREN8C+AM5SsX5VB/nBwnMfghAYMmMCZbugxNDTlWRsyRCVTrGYuC9nQRBEARBEJ9dXoMldQAIIfWgiNIzp+9NRizPL1tb2JbPB32cYgFzxnL27TmBiyKv5XufZf1uVeCvM44SSogH9eNJEARBEATxGebGDw2ZRHNQBdZNMe7l86PHWaDWQwzAsH8KYBEAbx3l8Fpa568X2tahpaTs8LEptnAqFQl0Rp0gCIIgCMLOa2LhHJPBEQ4Pilg0FNSDLLJbRWy8c4S0JCGSaaGIY0jrDczlucM9naJ5ot196CcB+Yy7NnI/aQBM66j9q0QEQRAEQRCfJa5Z4eSWoZdG+8QUM0TjYRaorVrWxaSMnppDLJxCXVcYV2+d2pfVu1VISyUUH1zx14C4LyjFtxJYfseIXUF16RTymYpe7RRx16c6CYIgCIIgPhu8FoeGAPfSd7FTN/8/bBp+N4to4wg7kFFe0RW76CKKB3H9Kz88xklz3YembtkcW9mM5qDu+twPp1BXU+PGShAEQRAE8Znhc5qmaTctxKcVm6JMJ9oJgiAIgviMQgonQRAEQRAEMVXezENDBEEQBEEQxBsDKZwEQRAEQRDEVCGFkyAIgiAIgpgqpHASBEEQBEEQU4UUToIgCIIgCGKqkMJJEARBEARBTBVSOAmCIAiCIIipcs1fGiKITw+/GP4Slb/8Ef7iv/8cXwy9hX/7b/4V8r/zVXwx9NZNi0YQBEEQrxVk4SSICfjF8JeI/d7H+Ju//Qfkv/FV5H/nq/ibv/0HvPefWvjF8Jc3LZ6dQQPp9QaGNy3Ha88QjXUJ1e5Ny0EQBPHp49oUzmEzDUmS3D/BRKhU2L10UzRFKqgaYStK4PRZnGk0BgFkkvhJh01CklSFlZpxzR6fW04rjJEn/58Rn4LqyLjF9/3y5PvTy1Kp8HnnynqkzEGfF9X9P+HJBzX86Smfk5/hT9/7GE+Gxv9bGKUHDL//Mb7wwQ+t9nTaMv8efv9jfKH2M3GY92r23wc/xFCXyXnvd7//TwCAyl/+CF8MvQXlu99E/htfxTd+60t48scJfDH0Fn5/53+OkDQoQzTW7fU8sh25+sQQjYdZ4N4dhEaG59u43pY8FFWl4tU/gfHagbNf+bV7UTkYzxt9cpL2ZxBC6kERpUf+yrnRx8ZWTAcNpB1lbKNbnSxegiCINwHtplC2tZmZGW2mfOK6dVKe0WZmZrS1xoU4jN9PEJ8onBn3q31tjQtnpL2tGIEvtP37M9rMzLZ24ozv/r7mkNDGRWNNm5lZ0/ZfufPnyhvPqwvtQk/DksMWg7YtiHcUTB4uH0JOtG0z3VHpOO+faNuu+Fn5ufKhbNvL7+IH2vq7j7WmceHHh9rb7x5qinlP/78n/6g1vy1rf/Jj7tKPD7W3v/0D7ULTtIuLntb8tmz+bSb79LH2ttwThHHHp8iytv70HzVN07Ro9rH25//t/7ikKP95V4tmH/tKOhav9rW1Cera4KTs0SdGh+Tq1ugDQfueqB0EvOZoF6zNutNy9x+PduYFn47PuLLWuHDJYEvbI6xQjlf72ppX/zPGIeFv8vonCIJ4XbjGPZxDNNYjOH+gIhcFhn1mzkrcAhrrErIH7hCtTATSUxm93TnsSXGUWAjIZ3WkwlzMzTQimRa7937MHkm3CmmpBBTaUPMxKBUJ8a0Elt8JsbDPD9FypZzAbNh10crHIyYJDrKISFlXWEO+0EodPaQReawglY+Z4fsvgIW7Ic+SQjiEUDgHtQNIS1Usqos4NvPPMS/BSr2ItppDzPmMiYK9TAvFTt3nGQCIIXcmI/2wgeHunCuOqrSDWUf5Xwmhr+F73/lnfOGvfob3Mp/Hk4+ZmSvxXs185Cn3f3zpK/jJR1+DWYqn/wsP8BX8ZMER78//GecAoqEv472PPg988ASF7/86vvf1z1vPtI/whfYRF/e/NP/70R/V8BEX3b1vsX9/MfwlfvGP7qXzL/7qW1e7pB5Ood45h/SwgTu7Kfi0GhdKRUIcrN2Pi1KJ47TWQy4MACGkdlWkHHHv3OqhvuIlUQlxydViAde1Itr8n9FVyIhgr5tCLqpfK0yWh8BEc+jVTrGJspWfbhXSo1mUV0JAE0jUPPIazUFVc9wFvY+M0z/0tHqqirrthoKqFMdprXz1/Y0gCOK6uTbV1rQEsLd1tyXRwmnhPCmvaWtBLCy2H7MkGHEJ7xtWhfv72smrC82y5NhltFk37q+NkNvDGjHSOmtZPi4aayOsUuNbOCezdBnpMKun2+pyhRZOHt66qWmBLJy89dFKenS4SS2c7/7hodCS+e4fHmr/8b/8D58Urwllm6vvC23//hjthQ/rYWH1t9JfwsLpSH90XzCwtzMvy6gZl6D9mXlStl390TOvr/a1NZt8Rp5EfYb76Wl7j0/+4QiCIN40rnVJ3Rxc76/py0eWUsgP6KIldZEyZ04qrgGfV+DY32uNC1Ppsk9G7Dn+mm1yMZe6rOe2FU04EVsy8kuQjglVtKzmuHbxap/lwXNyGVPhNJVdv+V0kcwihXLU31OYPEcpjj8+1N5+10vhfKytf1vW3n7X/nM965leT/sTwfPnF/9Pi2Yfm0vrxlL62+/KV6Zw8srIthJcOXEqR8GVNk0TLZ9vK1qAF6ZJ24H/Fg9PxdGpQAoUTt9yMBXOUdsFtrV9Lxk4pdFMy+9FytHPT8oz2nZZ9DyTSbiliBROgiDeUMZeUrctX4+5tBrLt1HciqN00GLL2IVFxAYNpLeAFjbReGdUfC1kbcvIOltxSFtjZsS5BL1Sh7rifkp5nNWX3NkSYaLWQz0KKBV2vWVbLjfQlyAHDaTnz+23BudoFRYdS2eO0OEUcuodzK47lhYnQkF16RRyR8bh0jm8l8V9ZH5ehZThlkL1OkjUZDhXsN1L+/atFCbdKqRH+n9rNSTaAPAWHn33t4HqEzz4uTsntiV1APe+9R6+93WYy+/2uDh+7Q4++ejL7ghPW/jCH3mfULGl92dP8IU/0/8fv4NPMl/Gkz9OoPKXP8Lv7zwz3SJ98Ve/hMpf/Ahf/NW3kP/GVz3jDkIsr0LN6+Vn/s3uDZtpRJ4uozdqmb1bRSSzgLYa4/quD0kZvV0VqqvenEvHo3C2AwVV6RiLgmvmXxUJ8S3ANbZ4LKmzZX3nto9xcWwXMJa3uXIdNtPWkrrgfijfxoLExq87/VPg9qJ5QMtv20EsryLWraK0JdqaA+AgAinjuJaUL5lfgiCIG2Is9dS5sX2St23OUuJa/nIsM4mXsRzWE4flxm0J9bK2cMtenNXTtvRryy+zdKyVT7QLI5wt//bleCv8tnYS9NCFsEwvH9ayyOrWFT1fwvK1WWHGPDQkPBQRdEm9p/0Jf2jIFoW3hdNYEhcuqYsOEvnCrJlvf/sH2sXFD7T1d2X7cntAyn/e1d5+V9Z+eHYVJz1E5We/dlL2O6Ti7iM2HMvHZgqGJf/K8Fg+Fz5ntSlmPTxxW/xcck9q4XQguG6Lyy/cDNv6Y5abcxXE79AQLyMdEiII4lPI9fvhDM8iof/XcD8SWilDTgI4yGLT09WK4QoljhKKaKs9FmYrjnRzaLoqYRaSFrKP7c5HErUe2gUAhTZ6NV2C7jE7iLMVNy0/pSXDLRJzJ9NKFlFMssfnVuqo52MI6eGKD1IIdasudzJumBVFVQP8TMsJc/OSbsIRVs93oe0T1ggfweG9nttCGk6hrvaw/DTi6fbGjsDlzDX6dez+1U/xFAMkBK6Rzv/vW2hlBNZLAMDnMftrwEf/2+0OCWDWULvbo7/Dv3uSwScffQ2h0NfwvScZfPKbf+d2myRwr8ST/8ZX8Z837k7NAfywuYns7bZZr7F8G1hyuBMaNJCezwLJhDAOXwYNbGZaZl9grodGuDrS24O3W644Sigh7hFe7GJJP2A3F0NqV2+vUhqNbgPppVPIZ36H5IJjk3mppB8GtOTqvxxhFQaAaA7tQgutgyIWjf4WTqFcg2ssEkhg9q9NlKGqGzifd7hHGjSQJpdJBEG8wYyncIZTKBvKGhKQPxzv1CzAL1GDUzCZ/zskZWy8Iwij+9zbudVjilUHiEsRnD9oowh2mt1cKjQUsZGnWkuIL5XYEqKqmkposcOUt1w0hLnbQPHBKmZt4fRT6kkZq1HjxHoJ8fU9nAtSsYUc4SPTNukOjnB4YJ2mt+LYRBYyer75Y8pm9nbb5xQxU4Lbt7OIiHx6DhpIV44BLGBOX9o0ykbtFH3SdioVEWQPwCkv3MQegG6thsTffwU/eZLBJ99hp9Z5f53RTAJ+Ow6ivxkG/l4VKsfRTAY/+RavFA6QcPrhdCy53/vWe/jEU8G1+MZvfWlKCqeCvcwC2rb6jyHXWUD2ofUSoDzOYqGjonxv/BQMzw1mfavG8nYC8pngJYlrD6GVuut+r5YACkUUUUSxwMdr/YTtdHCEQ1OB01/azpZxuJRFK7mMOyO287QyEVub89pOYJO5UzTHBF6uhblRIx1TjoESjjmlMLSygeLWsfCF1PIlugl8yNIrYxOStIPZjoxTvs88BMqqitUwue8nCOLNZGwLpzU4T+AaZ9DAzhbYgK5PUq3MJlN2ojmouynEwu6BPZbXB/+5PTb4PluEqvYw+8hyFWRaMHWLp5VmH6dgk098C5w1s4i2yypoZ+6WbFkrdIbNTebC6SCLiK5MAQAOSigJXDu5EFkmVZXJzqfz/NA9qQ4a2MzAUvSFjqQVVCWmbAZxJRPLq1B5ZWVwjhZKiM+fY+MuUErOIuguOSazNVnzFlmXkuGrtALM2buubBrujxYS+OS7X8HZH1kO2Eey8K/xwc9/ise8U3nOITwAtifzSYb9vmNv1B98J2Pea8WDJTlNlIqHpVC3zBkrBLG8OvHeX6OPX27vMGA4gN9EGWp+EQCwmFex+MzPabyBvsJQWEQM3Mva/Dk21B5kMCukXzyJWs+t+Hqltc47zT/HnvnFoSH6L/zcpOkxNDeRPShCriUcjuNjyHm4KzPGNcOiaVk467jTZ0p/otZDr5ZAQnfcHxKMjwRBEG8C17qkzqybumU0mkO7ABQ7ZdwZFVD/AgdTNFW0EdctZwnINV1xfXqEubxl8TQnosG5aa1xLqn3OYujc0ldqigIraRcE4W5vGZTHFm6DMsiyOUcVamKI+dlT4Y4etoyJxkzjvksFjqcoh9OoVw7Rdz2RSPmP3Esv4W6sh+C7h+10GYHRJ6VbDKYZeNhney/bAG358a2ersY/hC/+94R8B19eZu/F/oavvfkDub/7K/1rxCN4st4/1tv4aOPLQVz+OqXwK9Jl5dzLJjyNfaSaHcP2QPgtD+0XtiMlyXn70wGnh5d0VYH+zaK8eQ2lt+PsSiwXsbyhiVPoDAa21x062b77jHrn0+X9ReZHGKGtbNTtF5YHYRW6q50Qyt1Qb+wVgOse7NY3e1h9lEajeYeshhhTTVeBM9ySK2UIcN/a5CZsjn+sHLiX6o3UWb5e9lHaGUDC5mIuw6McXHklh6CIIib5/ocv3eriG8BCc6JcSyv+u7BMpexojmo6iKqEncaPSmjt5sCmmn29+05hBBDrlNEaalkOo0/vncKL0fuc9zJdOMEb7Hjb9nhTwpzV5FT24AUF1gES4hL7NTtnedp3xP1CeNQtLGc/qGef2M/nn5CnsGcQjPVr4X4Ojs5G8s7nUePR2ilDhXQ66uIthoCdBXGXTbcNDdoYGcrAflskl11P8OfvnfEHKz/3sfAd7+J7z35ms/zX8YfPBm9rG0Q+vpv49HRE/zGB8BPPvp1/ODol/jgm1z4CRy/j82gj1MUsTGG1dBqk21gKQJJtx571m84hfruhPJZqTIF7EBfPjfjU1D18hIBmKenjQ8ryGcqVB8lLaT3PaZ0tdiL4K0dRDKA3FnG4dIhls/qiIXhfTo+moOq2i+VliT3BxK8SMoQObXXJURqt4zGegTFB6rPywl7EUStp49rIaQ+lHH48AjDFf8tRyFz/GEKehwwX2QBQKmUALRhjC9VSULV7IO694kzFXeepxGpKNN1jk8QBHFJrk3hVJ6xr/147Sm0XKLoJGWsRu33ErUeVMM1yZLlSsSmCEX1L/Q8W4Saj2HYPAT0pek+wJbUAaCwcekDBy6ZUUSbd6fy/BAtzqXLEPB38cKHSy6jbEzYupUWGd5Nim7l4sJf3oWSAdubWuwYLwRsUjbvrXNbCZIyemFg2DxEq7CB+ghLUHre2sObqPUQAtCtHeHsW+/hk69/HsPvf4zf+L0aHgQRU3dPNJrP472P3gM+eILfeO+nAMJo8f6c+HhOW/jCx9atD76TwR/oz3ZrNfzXIHKJCOAOS4TZtlUVixVJ7D7HyYgv87jcIxXaXF/wUsAAT1donIsr8QuZNyHupU+pwIw/pc4xK2mQSAptqHn2mjfqhVEks/m3brk32iW6e8zy6ROfsaJgG9c4xd9Z1olazyxra/ww+rJif6lGEW3VeDqGnNpjVmewr68RBEG8SXxO0zTtpoUgiE87oz8FSRDjYSmzoz5rSxAEcfOQwkkQBEEQBEFMlev3w0kQBEEQBEF8piCFkyAIgiAIgpgqpHASBEEQBEEQU4UUToIgCIIgCGKqkMJJEARBEARBTBVSOAmCIAiCIIipQgonQRAEQRAEMVVI4SQIgiAIgiCmCimcBEEQBEEQxFQhhZMgCIIgCIKYKqRwEgRBEARBEFOFFE6CIAiCIAhiqpDCSRAEQRAEQUwVUjgJgiAIgiCIqUIKJ0EQBEEQBDFV/j8IxPUn32xFwAAAAABJRU5ErkJggg==;" vertex="1" parent="1">
                    <mxGeometry x="50" y="680" width="668" height="117" as="geometry"/>
                </mxCell>
            </root>
        </mxGraphModel>
    </diagram>
</mxfile>